<svg width="906" height="387" viewBox="0 0 906 387" fill="none" xmlns="http://www.w3.org/2000/svg">
<path fill-rule="evenodd" clip-rule="evenodd" d="M-79.6679 14.8319C-79.4385 15.2763 -79.4384 15.2762 -79.4377 15.2758L-79.4335 15.2737L-79.4146 15.2641C-79.3974 15.2554 -79.3711 15.2421 -79.3355 15.2245C-79.2643 15.1892 -79.1564 15.1364 -79.0114 15.0675C-78.7214 14.9297 -78.2833 14.7274 -77.696 14.472C-76.5213 13.9611 -74.7495 13.238 -72.3704 12.3934C-67.6123 10.7043 -60.4249 8.52965 -50.7274 6.59773C-31.3331 2.734 -1.89542 -0.159629 38.2317 3.74626C118.486 11.5581 241.514 46.5699 412.472 155.441C583.531 264.375 706.707 299.456 787.153 307.287C827.376 311.202 856.912 308.304 876.405 304.421C886.15 302.479 893.384 300.291 898.187 298.587C900.588 297.734 902.381 297.003 903.576 296.483C903.904 296.34 904.186 296.214 904.424 296.105C904.621 296.015 904.787 295.938 904.922 295.873C905.072 295.802 905.185 295.747 905.261 295.709C905.299 295.69 905.328 295.676 905.348 295.666L905.37 295.654L905.376 295.651C905.377 295.651 905.378 295.65 905.283 295.465C905.251 295.402 905.208 295.318 905.15 295.206L905.012 294.939C904.92 294.761 904.92 294.761 904.919 294.762L904.915 294.764L904.896 294.774C904.879 294.782 904.853 294.795 904.817 294.813C904.746 294.848 904.638 294.901 904.493 294.97C904.203 295.108 903.765 295.31 903.178 295.566C902.003 296.076 900.231 296.8 897.852 297.644C893.094 299.333 885.907 301.508 876.209 303.44C856.815 307.304 827.377 310.197 787.25 306.291C706.996 298.48 583.968 263.468 413.009 154.597C241.951 45.663 118.774 10.5814 38.3286 2.75097C-1.89435 -1.16426 -31.4306 1.73376 -50.9228 5.617C-60.6686 7.55855 -67.9025 9.74618 -72.705 11.451C-75.1062 12.3034 -76.8994 13.0351 -78.0948 13.5549C-78.6924 13.8148 -79.1406 14.0218 -79.4406 14.1644C-79.5906 14.2356 -79.7036 14.2908 -79.7796 14.3285C-79.8176 14.3474 -79.8464 14.3618 -79.866 14.3717L-79.8885 14.3832L-79.8945 14.3863C-79.8961 14.3871 -79.8972 14.3876 -79.6679 14.8319ZM-81.6855 22.3186C-81.6862 22.319 -81.6863 22.319 -81.9156 21.8747C-82.1449 21.4304 -82.1439 21.4299 -82.1423 21.4291L-82.1362 21.426L-82.1138 21.4145C-82.0942 21.4046 -82.0654 21.3902 -82.0274 21.3713C-81.9513 21.3336 -81.8384 21.2784 -81.6884 21.2071C-81.3884 21.0645 -80.9402 20.8576 -80.3425 20.5977C-79.1472 20.0779 -77.3539 19.3462 -74.9527 18.4938C-70.1503 16.789 -62.9164 14.6013 -53.1706 12.6598C-33.6784 8.77655 -4.14213 5.87853 36.0808 9.79374C116.527 17.6242 239.703 52.7058 410.762 161.64C581.72 270.51 704.748 305.522 785.002 313.334C825.129 317.24 854.567 314.346 873.961 310.483C883.659 308.551 890.846 306.376 895.604 304.687C897.983 303.842 899.755 303.119 900.93 302.608C901.517 302.353 901.955 302.151 902.245 302.013C902.39 301.944 902.498 301.891 902.569 301.856C902.605 301.838 902.631 301.825 902.649 301.816L902.667 301.807L902.672 301.805C902.672 301.804 902.672 301.804 902.764 301.982L902.902 302.248C903.031 302.498 903.087 302.608 903.111 302.656C903.13 302.693 903.129 302.694 903.128 302.694L903.122 302.697L903.1 302.709C903.08 302.719 903.052 302.733 903.013 302.752C902.937 302.79 902.825 302.845 902.675 302.916C902.528 302.986 902.346 303.071 902.128 303.17C901.901 303.274 901.634 303.393 901.329 303.526C900.133 304.045 898.34 304.777 895.939 305.629C891.136 307.334 883.902 309.522 874.157 311.463C854.665 315.347 825.128 318.245 784.905 314.329C704.459 306.499 581.283 271.417 410.225 162.483C239.266 53.6127 116.238 18.6009 35.9839 10.789C-4.14317 6.88314 -33.5809 9.77679 -52.9752 13.6405C-62.6727 15.5724 -69.8601 17.7471 -74.6182 19.4362C-76.9973 20.2807 -78.7691 21.0039 -79.9438 21.5147C-80.5311 21.7701 -80.9691 21.9725 -81.2591 22.1103C-81.4041 22.1792 -81.5121 22.232 -81.5833 22.2673L-81.6116 22.2814L-81.6624 22.3069L-81.6812 22.3164L-81.6855 22.3186ZM-84.1636 28.9174C-83.9343 29.3617 -83.9341 29.3616 -83.9334 29.3613L-83.9292 29.3591L-83.9103 29.3495L-83.8619 29.3252L-83.8312 29.3099C-83.7601 29.2747 -83.6521 29.2219 -83.5071 29.1529C-83.2171 29.0151 -82.779 28.8128 -82.1917 28.5574C-81.0171 28.0466 -79.2452 27.3234 -76.8661 26.4788C-72.108 24.7897 -64.9206 22.6151 -55.2232 20.6831C-35.8289 16.8194 -6.39114 13.9258 33.736 17.8317C113.99 25.6435 237.018 60.6553 407.977 169.526C579.035 278.46 702.212 313.542 782.657 321.372C822.88 325.287 852.417 322.389 871.909 318.506C881.655 316.564 888.889 314.377 893.691 312.672C896.092 311.82 897.885 311.088 899.081 310.568C899.678 310.308 900.127 310.101 900.427 309.959C900.577 309.887 900.69 309.832 900.766 309.794C900.804 309.776 900.832 309.761 900.852 309.751L900.874 309.74L900.88 309.737C900.881 309.737 900.881 309.736 900.879 309.732C900.876 309.724 900.866 309.705 900.84 309.653C900.809 309.591 900.752 309.482 900.654 309.291L900.516 309.025C900.424 308.847 900.424 308.847 900.424 308.847L900.419 308.849L900.401 308.859L900.344 308.887L900.321 308.898C900.25 308.934 900.142 308.987 899.997 309.055C899.707 309.193 899.269 309.396 898.682 309.651C897.507 310.162 895.735 310.885 893.356 311.73C888.598 313.419 881.411 315.593 871.713 317.525C852.319 321.389 822.881 324.283 782.754 320.377C702.5 312.565 579.472 277.553 408.514 168.682C237.455 59.7484 114.279 24.6668 33.8329 16.8364C-6.39007 12.9212 -35.9263 15.8192 -55.4185 19.7024C-65.1643 21.644 -72.3982 23.8316 -77.2007 25.5364C-79.6019 26.3888 -81.3951 27.1205 -82.5905 27.6403C-83.1882 27.9002 -83.6364 28.1072 -83.9364 28.2498C-84.0863 28.3211 -84.1993 28.3763 -84.2753 28.4139C-84.3133 28.4328 -84.3421 28.4473 -84.3617 28.4572L-84.3842 28.4686L-84.3903 28.4717C-84.3919 28.4725 -84.3929 28.473 -84.1636 28.9174ZM-86.1812 36.404C-86.1819 36.4044 -86.182 36.4045 -86.4113 35.9601C-86.6407 35.5158 -86.6396 35.5153 -86.638 35.5145L-86.632 35.5114L-86.6095 35.4999L-86.5772 35.4837L-86.5231 35.4567C-86.4471 35.419 -86.3341 35.3638 -86.1841 35.2926C-85.8841 35.15 -85.4359 34.943 -84.8383 34.6831C-83.6429 34.1633 -81.8497 33.4316 -79.4485 32.5792C-74.646 30.8744 -67.4121 28.6867 -57.6663 26.7452C-38.1741 22.862 -8.63785 19.9639 31.5851 23.8792C112.031 31.7096 235.208 66.7912 406.266 175.725C577.225 284.596 700.252 319.608 780.506 327.42C820.634 331.325 850.071 328.432 869.466 324.568C879.163 322.636 886.35 320.461 891.109 318.772C893.488 317.928 895.26 317.205 896.434 316.694C896.616 316.615 896.784 316.541 896.937 316.472C897.092 316.403 897.232 316.339 897.358 316.281C897.509 316.212 897.64 316.15 897.75 316.098L897.82 316.065L897.926 316.014C897.986 315.984 898.035 315.96 898.074 315.941C898.109 315.924 898.136 315.91 898.153 315.902L898.172 315.892L898.176 315.89C898.176 315.89 898.177 315.89 898.269 316.068L898.406 316.334C898.488 316.494 898.541 316.596 898.575 316.662C898.635 316.779 898.634 316.779 898.633 316.78L898.627 316.783L898.604 316.794C898.585 316.804 898.556 316.818 898.518 316.837C898.442 316.875 898.329 316.93 898.179 317.001C897.879 317.144 897.431 317.351 896.833 317.611C895.638 318.131 893.844 318.862 891.443 319.715C886.641 321.42 879.407 323.607 869.661 325.549C850.169 329.432 820.633 332.33 780.41 328.415C699.964 320.584 576.787 285.503 405.729 176.569C234.77 67.6981 111.742 32.6863 31.4882 24.8745C-8.63892 20.9686 -38.0766 23.8622 -57.4709 27.7259C-67.1684 29.6578 -74.3558 31.8325 -79.1139 33.5216C-81.493 34.3662 -83.2648 35.0893 -84.4395 35.6002C-85.0268 35.8556 -85.4648 36.0579 -85.7549 36.1957C-85.8999 36.2646 -86.0078 36.3174 -86.079 36.3527C-86.1146 36.3703 -86.1409 36.3836 -86.1581 36.3923L-86.177 36.4019L-86.1812 36.404ZM-88.6591 43.0029C-88.4298 43.4473 -88.4297 43.4472 -88.429 43.4468L-88.4247 43.4446L-88.4059 43.4351C-88.3887 43.4264 -88.3623 43.4131 -88.3268 43.3955C-88.2556 43.3602 -88.1476 43.3074 -88.0026 43.2385C-87.7126 43.1007 -87.2746 42.8984 -86.6873 42.6429C-85.5126 42.1321 -83.7408 41.4089 -81.3617 40.5644C-76.6036 38.8753 -69.4162 36.7006 -59.7187 34.7687C-40.3244 30.905 -10.8867 28.0114 29.2404 31.9172C109.495 39.7291 232.522 74.7409 403.481 183.612C574.539 292.546 697.716 327.627 778.162 335.458C818.385 339.373 847.921 336.475 867.413 332.592C877.159 330.65 884.393 328.462 889.195 326.758C891.597 325.905 893.39 325.173 894.585 324.654C894.92 324.508 895.208 324.379 895.45 324.269C895.639 324.182 895.799 324.107 895.931 324.044C896.081 323.973 896.194 323.918 896.27 323.88C896.308 323.861 896.337 323.847 896.356 323.837L896.379 323.825L896.385 323.822C896.387 323.821 896.388 323.821 896.158 323.377L896.021 323.11C895.929 322.932 895.929 322.932 895.928 322.933L895.924 322.935L895.905 322.944C895.888 322.953 895.861 322.966 895.826 322.984C895.755 323.019 895.647 323.072 895.502 323.141C895.212 323.279 894.774 323.481 894.186 323.737C893.012 324.247 891.24 324.971 888.861 325.815C884.103 327.504 876.915 329.679 867.218 331.611C847.824 335.475 818.386 338.368 778.259 334.462C698.004 326.65 574.977 291.639 404.018 182.768C232.96 73.834 109.783 38.7524 29.3373 30.922C-10.8856 27.0067 -40.4219 29.9048 -59.9141 33.788C-69.6599 35.7295 -76.8938 37.9172 -81.6962 39.622C-84.0974 40.4744 -85.8907 41.2061 -87.086 41.7259C-87.6837 41.9858 -88.1319 42.1928 -88.4319 42.3353C-88.5819 42.4066 -88.6948 42.4618 -88.7709 42.4995C-88.8089 42.5184 -88.8377 42.5328 -88.8573 42.5427L-88.8798 42.5542L-88.8858 42.5573C-88.8874 42.5581 -88.8884 42.5586 -88.6591 43.0029ZM-90.6782 50.4879C-90.6799 50.4849 -90.684 50.4771 -90.6946 50.4568C-90.7183 50.4114 -90.7742 50.3031 -90.9071 50.0457C-91.1364 49.6014 -91.1354 49.6009 -91.1338 49.6001L-91.1277 49.597L-91.1052 49.5855C-91.0856 49.5756 -91.0568 49.5612 -91.0188 49.5423C-90.9428 49.5046 -90.8299 49.4494 -90.6799 49.3781C-90.3799 49.2355 -89.9317 49.0286 -89.334 48.7687C-88.1386 48.2489 -86.3454 47.5172 -83.9442 46.6648C-79.1418 44.96 -71.9078 42.7723 -62.162 40.8308C-42.6698 36.9476 -13.1336 34.0495 27.0894 37.9648C107.535 45.7952 230.712 80.8768 401.77 189.811C572.729 298.681 695.756 333.693 776.011 341.505C816.138 345.411 845.576 342.517 864.97 338.654C874.667 336.722 881.855 334.547 886.613 332.858C888.992 332.013 890.764 331.29 891.938 330.779C892.526 330.524 892.964 330.322 893.254 330.184C893.399 330.115 893.507 330.062 893.578 330.027C893.614 330.009 893.64 329.996 893.657 329.987L893.676 329.978L893.68 329.975C893.681 329.975 893.681 329.975 893.773 330.153L893.91 330.419C894.14 330.864 894.139 330.864 894.137 330.865L894.131 330.868L894.108 330.88L894.073 330.897L894.022 330.923L893.955 330.956L893.869 330.998L893.785 331.038L893.683 331.087C893.383 331.23 892.935 331.437 892.337 331.696C891.142 332.216 889.349 332.948 886.947 333.8C882.145 335.505 874.911 337.693 865.165 339.634C845.673 343.518 816.137 346.416 775.914 342.5C695.468 334.67 572.291 299.588 401.233 190.654C230.274 81.7837 107.247 46.7719 26.9925 38.96C-13.1346 35.0542 -42.5724 37.9478 -61.9667 41.8115C-71.6641 43.7434 -78.8516 45.9181 -83.6097 47.6072C-85.9887 48.4517 -87.7606 49.1749 -88.9352 49.6857C-89.5225 49.9411 -89.9606 50.1435 -90.2506 50.2813C-90.3956 50.3502 -90.5036 50.403 -90.5747 50.4383C-90.6103 50.4559 -90.6366 50.4692 -90.6538 50.4779L-90.6727 50.4874L-90.6769 50.4896C-90.677 50.4897 -90.6771 50.4897 -90.6775 50.4891L-90.6782 50.4879ZM-92.939 57.5063C-92.9252 57.5326 -92.925 57.5325 -92.9247 57.5324L-92.9205 57.5302L-92.9016 57.5206L-92.8692 57.5043L-92.8225 57.4811C-92.7514 57.4458 -92.6434 57.393 -92.4984 57.3241C-92.2084 57.1863 -91.7703 56.9839 -91.183 56.7285C-90.0084 56.2177 -88.2365 55.4945 -85.8574 54.65C-81.0993 52.9609 -73.9119 50.7862 -64.2145 48.8543C-44.8202 44.9906 -15.3824 42.0969 24.7447 46.0028C104.999 53.8146 228.027 88.8265 398.985 197.697C570.044 306.631 693.22 341.713 773.666 349.543C813.889 353.458 843.425 350.56 862.917 346.677C872.663 344.736 879.897 342.548 884.7 340.843C887.101 339.991 888.894 339.259 890.089 338.739C890.687 338.479 891.135 338.272 891.435 338.13C891.585 338.059 891.698 338.003 891.774 337.966L891.823 337.942L891.861 337.922L891.883 337.911L891.889 337.908C891.891 337.907 891.892 337.907 891.662 337.462L891.525 337.196C891.433 337.018 891.433 337.018 891.432 337.018L891.428 337.021L891.409 337.03C891.392 337.039 891.366 337.052 891.33 337.07L891.308 337.081L891.205 337.131C891.149 337.158 891.083 337.19 891.006 337.227C890.716 337.364 890.278 337.567 889.691 337.822C888.516 338.333 886.744 339.056 884.365 339.901C879.607 341.59 872.42 343.765 862.722 345.696C843.328 349.56 813.89 352.454 773.763 348.548C693.509 340.736 570.481 305.724 399.522 196.854C228.464 87.9196 105.287 52.838 24.8416 45.0075C-15.3814 41.0923 -44.9176 43.9903 -64.4098 47.8736C-74.1556 49.8151 -81.3895 52.0028 -86.192 53.7076C-88.5932 54.56 -90.3864 55.2917 -91.5818 55.8115C-92.1795 56.0714 -92.6277 56.2783 -92.9276 56.4209C-93.0776 56.4922 -93.1906 56.5474 -93.2666 56.5851L-93.3287 56.6161L-93.353 56.6283L-93.3755 56.6397L-93.3816 56.6429C-93.3832 56.6437 -93.3842 56.6442 -93.1549 57.0885L-93.0389 57.3131C-92.9815 57.4243 -92.9531 57.4792 -92.939 57.5063ZM-95.1727 64.5752C-95.1734 64.5756 -95.1735 64.5756 -95.4028 64.1313C-95.6321 63.687 -95.6311 63.6865 -95.6295 63.6856L-95.6234 63.6825L-95.6009 63.6711C-95.5814 63.6612 -95.5526 63.6467 -95.5145 63.6279C-95.4385 63.5902 -95.3256 63.535 -95.1756 63.4637C-94.8756 63.3211 -94.4274 63.1142 -93.8297 62.8543C-92.6344 62.3345 -90.8411 61.6028 -88.4399 60.7504C-83.6375 59.0455 -76.4036 56.8579 -66.6578 54.9164C-47.1656 51.0331 -17.6293 48.1351 22.5937 52.0503C103.039 59.8808 226.216 94.9624 397.274 203.896C568.233 312.767 691.261 347.779 771.515 355.591C811.642 359.497 841.08 356.603 860.474 352.739C870.172 350.807 877.359 348.633 882.117 346.944C884.496 346.099 886.268 345.376 887.443 344.865C888.03 344.61 888.468 344.407 888.758 344.269C888.903 344.201 889.011 344.148 889.082 344.112C889.118 344.095 889.144 344.082 889.161 344.073L889.18 344.063L889.184 344.061C889.185 344.061 889.185 344.061 889.188 344.067L889.198 344.086L889.212 344.114L889.277 344.239L889.415 344.505C889.644 344.949 889.643 344.95 889.641 344.951L889.635 344.954L889.613 344.965L889.572 344.986L889.526 345.008C889.45 345.046 889.337 345.101 889.187 345.173C888.887 345.315 888.439 345.522 887.841 345.782C886.646 346.302 884.853 347.034 882.452 347.886C877.649 349.591 870.415 351.778 860.67 353.72C841.177 357.603 811.641 360.501 771.418 356.586C690.972 348.756 567.796 313.674 396.737 204.74C225.779 95.8693 102.751 60.8574 22.4968 53.0456C-17.6304 49.1397 -47.0681 52.0334 -66.4624 55.8971C-76.1598 57.829 -83.3473 60.0037 -88.1054 61.6928C-90.4845 62.5373 -92.2563 63.2605 -93.4309 63.7713C-94.0183 64.0267 -94.4563 64.229 -94.7463 64.3669C-94.8913 64.4358 -94.9993 64.4886 -95.0704 64.5239L-95.1236 64.5504L-95.1495 64.5634L-95.1684 64.573L-95.1727 64.5752ZM-97.4363 71.5888C-97.4209 71.6182 -97.4207 71.6181 -97.4204 71.618L-97.4162 71.6158L-97.3973 71.6062C-97.3801 71.5975 -97.3538 71.5843 -97.3182 71.5667C-97.2471 71.5314 -97.1391 71.4786 -96.9941 71.4097C-96.7041 71.2718 -96.266 71.0695 -95.6787 70.8141C-94.5041 70.3033 -92.7322 69.5801 -90.3532 68.7355C-85.595 67.0464 -78.4076 64.8718 -68.7102 62.9399C-49.3159 59.0762 -19.8781 56.1825 20.249 60.0884C100.503 67.9002 223.531 102.912 394.49 211.783C565.548 320.717 688.725 355.798 769.17 363.629C809.393 367.544 838.93 364.646 858.422 360.763C868.168 358.821 875.402 356.634 880.204 354.929C882.605 354.076 884.398 353.345 885.594 352.825C886.191 352.565 886.64 352.358 886.94 352.215C887.09 352.144 887.203 352.089 887.279 352.051C887.317 352.032 887.345 352.018 887.365 352.008L887.387 351.997L887.393 351.993C887.395 351.993 887.396 351.992 887.167 351.548L887.029 351.282C886.937 351.104 886.937 351.104 886.937 351.104L886.932 351.106L886.914 351.116C886.896 351.124 886.87 351.138 886.834 351.155C886.763 351.19 886.655 351.243 886.51 351.312C886.22 351.45 885.782 351.652 885.195 351.908C884.02 352.419 882.248 353.142 879.869 353.986C875.111 355.675 867.924 357.85 858.226 359.782C838.832 363.646 809.394 366.539 769.267 362.633C689.013 354.822 565.985 319.81 395.027 210.939C223.968 102.005 100.792 66.9236 20.3458 59.0931C-19.8771 55.1779 -49.4133 58.0759 -68.9055 61.9591C-78.6513 63.9007 -85.8853 66.0883 -90.6877 67.7932C-93.0889 68.6456 -94.8821 69.3772 -96.0775 69.8971C-96.6752 70.157 -97.1234 70.3639 -97.4234 70.5065C-97.5734 70.5778 -97.6863 70.633 -97.7623 70.6707C-97.8003 70.6895 -97.8291 70.704 -97.8487 70.7139L-97.8712 70.7253L-97.8773 70.7284C-97.8789 70.7293 -97.8799 70.7298 -97.6506 71.1741L-97.4741 71.5159L-97.4363 71.5888ZM-99.6682 78.6606C-99.6689 78.661 -99.6691 78.661 -99.8984 78.2167C-100.128 77.7724 -100.127 77.7719 -100.125 77.7711L-100.119 77.768L-100.097 77.7565C-100.077 77.7466 -100.048 77.7322 -100.01 77.7133C-99.9341 77.6756 -99.8211 77.6204 -99.6712 77.5491C-99.3712 77.4065 -98.923 77.1996 -98.3253 76.9397C-97.1299 76.4199 -95.3367 75.6882 -92.9355 74.8358C-88.133 73.131 -80.8991 70.9433 -71.1533 69.0018C-51.6611 65.1185 -22.1249 62.2205 18.0981 66.1357C98.5439 73.9662 221.721 109.048 392.779 217.982C563.738 326.852 686.765 361.864 767.02 369.676C807.147 373.582 836.584 370.688 855.979 366.825C865.676 364.893 872.863 362.718 877.622 361.029C880.001 360.184 881.772 359.461 882.947 358.95C883.279 358.806 883.564 358.679 883.801 358.57C883.887 358.53 883.968 358.493 884.042 358.459C884.09 358.436 884.137 358.414 884.18 358.394L884.263 358.355C884.408 358.286 884.515 358.233 884.587 358.198C884.622 358.18 884.649 358.167 884.666 358.158L884.685 358.149L884.689 358.147C884.689 358.146 884.69 358.146 884.782 358.324L884.919 358.59C885.148 359.035 885.147 359.035 885.146 359.036L885.14 359.039L885.117 359.051L885.086 359.067L885.031 359.094L884.99 359.114L884.942 359.138L884.865 359.175C884.814 359.199 884.757 359.227 884.692 359.258C884.626 359.289 884.553 359.324 884.473 359.361C884.419 359.386 884.363 359.412 884.303 359.44C884.244 359.467 884.183 359.495 884.119 359.524C883.897 359.625 883.64 359.74 883.346 359.868C882.151 360.387 880.357 361.119 877.956 361.971C873.154 363.676 865.92 365.864 856.174 367.805C836.682 371.689 807.145 374.587 766.923 370.671C686.477 362.841 563.3 327.759 392.242 218.825C221.283 109.955 98.2554 74.9429 18.0012 67.131C-22.1259 63.2251 -51.5637 66.1188 -70.958 69.9825C-80.6554 71.9144 -87.8428 74.0891 -92.6009 75.7782C-94.98 76.6227 -96.7519 77.3459 -97.9265 77.8567C-98.5138 78.1121 -98.9519 78.3145 -99.2419 78.4523C-99.3059 78.4827 -99.3628 78.51 -99.4124 78.5341C-99.4751 78.5644 -99.5263 78.5896 -99.566 78.6093C-99.6016 78.6269 -99.6279 78.6402 -99.6451 78.6488L-99.664 78.6584L-99.6682 78.6606ZM-102.146 85.2595C-101.917 85.7038 -101.917 85.7038 -101.916 85.7034L-101.912 85.7012L-101.893 85.6916C-101.876 85.683 -101.85 85.6697 -101.814 85.6521C-101.743 85.6168 -101.635 85.564 -101.49 85.4951C-101.2 85.3573 -100.762 85.1549 -100.174 84.8995C-98.9998 84.3887 -97.228 83.6655 -94.8489 82.821C-90.0908 81.1319 -82.9034 78.9572 -73.2059 77.0253C-53.8116 73.1616 -24.3739 70.2679 15.7532 74.1738C96.0075 81.9856 219.035 116.997 389.994 225.868C561.052 334.802 684.229 369.884 764.675 377.714C804.898 381.629 834.434 378.731 853.926 374.848C863.672 372.907 870.906 370.719 875.708 369.014C878.109 368.162 879.903 367.43 881.098 366.91C881.696 366.65 882.144 366.443 882.444 366.301C882.594 366.23 882.707 366.174 882.783 366.137C882.821 366.118 882.85 366.103 882.869 366.093L882.892 366.082L882.898 366.079C882.899 366.078 882.899 366.078 882.859 365.999L882.8 365.884L882.671 365.633L882.534 365.367C882.476 365.256 882.454 365.214 882.446 365.198C882.441 365.189 882.441 365.189 882.441 365.189L882.437 365.192L882.418 365.201C882.401 365.21 882.374 365.223 882.339 365.241C882.268 365.276 882.16 365.329 882.015 365.398C881.725 365.536 881.286 365.738 880.699 365.993C879.525 366.504 877.753 367.227 875.374 368.072C870.616 369.761 863.428 371.936 853.731 373.867C834.336 377.731 804.899 380.625 764.772 376.719C684.517 368.907 561.49 333.895 390.531 225.025C219.473 116.091 96.296 81.009 15.8501 73.1785C-24.3728 69.2633 -53.9091 72.1613 -73.4013 76.0446C-83.1471 77.9861 -90.381 80.1738 -95.1834 81.8786C-97.5846 82.731 -99.3779 83.4627 -100.573 83.9825C-101.171 84.2424 -101.619 84.4493 -101.919 84.5919C-102.069 84.6632 -102.182 84.7184 -102.258 84.7561C-102.296 84.7749 -102.325 84.7894 -102.344 84.7993L-102.367 84.8107L-102.373 84.8139C-102.375 84.8147 -102.376 84.8152 -102.146 85.2595ZM-104.164 92.7462C-104.165 92.7466 -104.165 92.7466 -104.394 92.3023C-104.623 91.858 -104.622 91.8575 -104.621 91.8566L-104.615 91.8535L-104.592 91.8421C-104.573 91.8322 -104.544 91.8177 -104.506 91.7989C-104.43 91.7612 -104.317 91.706 -104.167 91.6347C-103.867 91.4921 -103.419 91.2852 -102.821 91.0253C-101.626 90.5055 -99.8324 89.7738 -97.4312 88.9214C-92.6288 87.2165 -85.3949 85.0289 -75.6491 83.0874C-56.1569 79.2041 -26.6206 76.3061 13.6023 80.2213C94.0482 88.0518 217.225 123.133 388.283 232.067C559.242 340.938 682.269 375.95 762.524 383.762C802.651 387.668 832.089 384.774 851.483 380.91C861.18 378.978 868.368 376.804 873.126 375.115C875.505 374.27 877.277 373.547 878.451 373.036C878.757 372.903 879.022 372.785 879.247 372.682C879.454 372.588 879.628 372.507 879.767 372.44C879.912 372.372 880.02 372.319 880.091 372.283C880.126 372.266 880.153 372.253 880.17 372.244L880.189 372.234L880.193 372.232C880.193 372.232 880.193 372.232 880.197 372.238C880.203 372.25 880.223 372.288 880.286 372.41L880.423 372.676L880.539 372.901C880.577 372.975 880.603 373.024 880.619 373.057L880.638 373.095L880.647 373.113C880.651 373.121 880.65 373.121 880.65 373.122L880.644 373.125L880.621 373.136C880.602 373.146 880.573 373.161 880.535 373.179C880.495 373.199 880.446 373.224 880.386 373.253C880.331 373.279 880.268 373.31 880.196 373.344C880.009 373.433 879.764 373.547 879.46 373.683C879.278 373.765 879.075 373.856 878.85 373.953C877.655 374.473 875.862 375.205 873.46 376.057C868.658 377.762 861.424 379.949 851.678 381.891C832.186 385.774 802.65 388.672 762.427 384.757C681.981 376.927 558.804 341.845 387.746 232.911C216.787 124.04 93.7597 89.0284 13.5055 81.2166C-26.6217 77.3107 -56.0594 80.2044 -75.4537 84.0681C-85.1511 86 -92.3386 88.1747 -97.0967 89.8638C-99.4758 90.7083 -101.248 91.4315 -102.422 91.9423C-103.01 92.1977 -103.448 92.4 -103.738 92.5379C-103.883 92.6068 -103.991 92.6596 -104.062 92.6949C-104.097 92.7125 -104.124 92.7257 -104.141 92.7344L-104.16 92.744L-104.164 92.7462ZM-106.642 99.3451C-106.413 99.7894 -106.412 99.7893 -106.412 99.789L-106.407 99.7868L-106.389 99.7772L-106.357 99.7611L-106.31 99.7377C-106.238 99.7024 -106.13 99.6496 -105.985 99.5807C-105.695 99.4428 -105.257 99.2405 -104.67 98.9851C-103.495 98.4743 -101.724 97.7511 -99.3445 96.9065C-94.5864 95.2174 -87.3989 93.0428 -77.7015 91.1109C-58.3072 87.2472 -28.8694 84.3535 11.2577 88.2594C91.5119 96.0712 214.54 131.083 385.498 239.954C556.557 348.888 679.733 383.969 760.179 391.8C800.402 395.715 829.938 392.817 849.43 388.934C859.176 386.992 866.41 384.805 871.213 383.1C873.614 382.247 875.407 381.516 876.602 380.996C877.032 380.809 877.384 380.65 877.659 380.522C877.767 380.472 877.864 380.427 877.948 380.386C878.016 380.354 878.076 380.325 878.129 380.3L878.216 380.257L878.287 380.222L878.329 380.201L878.374 380.179L878.396 380.168L878.402 380.164C878.403 380.164 878.403 380.164 878.391 380.14C878.372 380.1 878.318 379.995 878.175 379.719L878.038 379.453C877.972 379.324 877.953 379.288 877.948 379.279C877.946 379.275 877.946 379.275 877.945 379.275L877.941 379.277L877.922 379.287L877.875 379.31L877.843 379.326C877.772 379.362 877.664 379.414 877.519 379.483C877.229 379.621 876.791 379.823 876.204 380.079C875.029 380.59 873.257 381.313 870.878 382.157C866.12 383.846 858.933 386.021 849.235 387.953C829.841 391.817 800.403 394.71 760.276 390.805C680.022 382.993 556.994 347.981 386.035 239.11C214.977 130.176 91.8004 95.0946 11.3546 87.2641C-28.8684 83.3489 -58.4047 86.2469 -77.8969 90.1301C-87.6426 92.0717 -94.8766 94.2593 -99.679 95.9642C-102.08 96.8166 -103.873 97.5482 -105.069 98.0681C-105.666 98.328 -106.115 98.5349 -106.415 98.6775L-106.504 98.7203L-106.566 98.7499L-106.625 98.7784C-106.676 98.8031 -106.719 98.8243 -106.754 98.8417C-106.792 98.8605 -106.82 98.875 -106.84 98.8849L-106.863 98.8963L-106.869 98.8994C-106.87 98.9003 -106.871 98.9008 -106.642 99.3451ZM-108.66 106.832C-108.66 106.832 -108.661 106.832 -108.89 106.388C-109.119 105.944 -109.118 105.943 -109.117 105.942L-109.11 105.939L-109.088 105.928L-109.052 105.91L-109.002 105.884C-108.926 105.847 -108.813 105.792 -108.663 105.72C-108.363 105.578 -107.914 105.371 -107.317 105.111C-106.121 104.591 -104.328 103.859 -101.927 103.007C-97.1245 101.302 -89.8906 99.1145 -80.1448 97.1729C-60.6526 93.2897 -31.1163 90.3917 9.10661 94.3069C89.5524 102.137 212.729 137.219 383.787 246.153C554.746 355.024 677.774 390.036 758.028 397.847C798.155 401.753 827.593 398.86 846.987 394.996C856.685 393.064 863.872 390.889 868.63 389.2C871.009 388.356 872.781 387.632 873.956 387.122C874.543 386.866 874.981 386.664 875.271 386.526C875.416 386.457 875.524 386.404 875.595 386.369L875.63 386.352L875.674 386.33L875.693 386.32L875.697 386.318C875.698 386.318 875.698 386.318 875.7 386.321L875.709 386.339C875.721 386.361 875.744 386.406 875.79 386.495L875.928 386.762C876.024 386.949 876.08 387.058 876.112 387.12C876.156 387.206 876.155 387.207 876.154 387.207L876.148 387.21L876.126 387.222L876.086 387.242L876.039 387.265C875.963 387.303 875.85 387.358 875.7 387.429C875.4 387.572 874.952 387.779 874.354 388.039C873.159 388.558 871.366 389.29 868.965 390.143C864.162 391.847 856.928 394.035 847.183 395.977C827.69 399.86 798.154 402.758 757.931 398.843C677.485 391.012 554.309 355.931 383.25 246.996C212.292 138.126 89.264 103.114 9.00972 95.3022C-31.1174 91.3963 -60.5551 94.2899 -79.9494 98.1537C-89.6469 100.086 -96.8343 102.26 -101.592 103.949C-103.971 104.794 -105.743 105.517 -106.918 106.028C-107.505 106.283 -107.943 106.486 -108.233 106.623C-108.378 106.692 -108.486 106.745 -108.557 106.78L-108.594 106.799L-108.637 106.82L-108.655 106.83L-108.66 106.832ZM-111.138 113.431L-110.946 113.802C-110.908 113.875 -110.908 113.875 -110.907 113.875L-110.903 113.872L-110.884 113.863C-110.867 113.854 -110.841 113.841 -110.805 113.823C-110.734 113.788 -110.626 113.735 -110.481 113.666C-110.191 113.528 -109.753 113.326 -109.166 113.071C-107.991 112.56 -106.219 111.837 -103.84 110.992C-99.0821 109.303 -91.8946 107.128 -82.1972 105.196C-62.8029 101.333 -33.3652 98.4391 6.76194 102.345C87.0162 110.157 210.044 145.169 381.003 254.039C552.061 362.973 675.238 398.055 755.683 405.885C795.906 409.801 825.443 406.903 844.935 403.019C854.681 401.078 861.914 398.89 866.717 397.185C869.118 396.333 870.911 395.601 872.107 395.081C872.704 394.822 873.153 394.615 873.453 394.472C873.529 394.436 873.595 394.404 873.652 394.376L873.732 394.337L873.791 394.308L873.836 394.286C873.853 394.277 873.867 394.27 873.878 394.265L873.9 394.253L873.906 394.25C873.908 394.249 873.909 394.249 873.68 393.804L873.542 393.538L873.467 393.392L873.453 393.366C873.45 393.36 873.45 393.36 873.45 393.36L873.445 393.363L873.427 393.372C873.409 393.381 873.383 393.394 873.347 393.412C873.315 393.428 873.274 393.448 873.226 393.471C873.169 393.499 873.102 393.532 873.023 393.569C872.733 393.707 872.295 393.909 871.708 394.164C870.533 394.675 868.761 395.398 866.382 396.243C861.624 397.932 854.437 400.107 844.739 402.039C825.345 405.902 795.907 408.796 755.78 404.89C675.526 397.078 552.498 362.066 381.54 253.196C210.481 144.262 87.3047 109.18 6.85881 101.35C-33.3641 97.4345 -62.9004 100.332 -82.3926 104.216C-92.1384 106.157 -99.3723 108.345 -104.175 110.05C-106.576 110.902 -108.369 111.634 -109.565 112.154C-110.162 112.414 -110.61 112.62 -110.91 112.763C-111.06 112.834 -111.173 112.89 -111.249 112.927C-111.287 112.946 -111.316 112.961 -111.336 112.97L-111.358 112.982L-111.364 112.985C-111.366 112.986 -111.367 112.986 -111.138 113.431ZM-113.155 120.917C-113.156 120.918 -113.156 120.918 -113.385 120.473C-113.615 120.029 -113.614 120.029 -113.612 120.028L-113.606 120.025L-113.584 120.013L-113.535 119.989L-113.497 119.97C-113.421 119.932 -113.308 119.877 -113.158 119.806C-112.858 119.663 -112.41 119.456 -111.812 119.196C-110.617 118.677 -108.824 117.945 -106.423 117.093C-101.62 115.388 -94.3862 113.2 -84.6404 111.259C-65.1482 107.375 -35.6119 104.477 4.61104 108.392C85.0569 116.223 208.234 151.305 379.292 260.239C550.251 369.109 673.278 404.121 753.532 411.933C793.66 415.839 823.097 412.945 842.492 409.081C852.189 407.15 859.376 404.975 864.135 403.286C866.514 402.441 868.285 401.718 869.46 401.207C869.813 401.054 870.113 400.919 870.358 400.806C870.464 400.758 870.559 400.713 870.645 400.673L870.713 400.641L870.775 400.612L870.882 400.561C870.927 400.539 870.968 400.519 871.003 400.502C871.041 400.484 871.073 400.468 871.1 400.455L871.161 400.424L871.179 400.415L871.198 400.406L871.202 400.403C871.202 400.403 871.202 400.403 871.204 400.406L871.211 400.42L871.225 400.447L871.294 400.581L871.432 400.847C871.661 401.292 871.66 401.292 871.659 401.293L871.653 401.296L871.63 401.307C871.611 401.317 871.582 401.332 871.544 401.351L871.511 401.367C871.47 401.387 871.421 401.411 871.363 401.439C871.316 401.462 871.263 401.487 871.205 401.515L871.122 401.554L871.057 401.585C870.962 401.629 870.855 401.679 870.737 401.733C870.493 401.845 870.2 401.976 869.859 402.124C868.663 402.644 866.87 403.376 864.469 404.228C859.667 405.933 852.433 408.121 842.687 410.062C823.195 413.945 793.658 416.843 753.436 412.928C672.99 405.098 549.813 370.016 378.755 261.082C207.796 152.211 84.7684 117.2 4.51416 109.388C-35.613 105.482 -65.0507 108.376 -84.445 112.239C-94.1424 114.171 -101.33 116.346 -106.088 118.035C-108.467 118.879 -110.239 119.603 -111.414 120.113C-112.001 120.369 -112.439 120.571 -112.729 120.709C-112.874 120.778 -112.982 120.831 -113.053 120.866C-113.089 120.884 -113.115 120.897 -113.132 120.906L-113.151 120.915L-113.155 120.917ZM-115.633 127.516C-115.404 127.96 -115.404 127.96 -115.403 127.96L-115.399 127.958L-115.38 127.948L-115.346 127.931L-115.301 127.909C-115.23 127.873 -115.122 127.821 -114.977 127.752C-114.687 127.614 -114.249 127.412 -113.661 127.156C-112.487 126.645 -110.715 125.922 -108.336 125.078C-103.578 123.388 -96.3904 121.214 -86.6929 119.282C-67.2986 115.418 -37.8609 112.525 2.26621 116.43C82.5205 124.242 205.548 159.254 376.507 268.125C547.565 377.059 670.742 412.14 751.188 419.971C791.411 423.886 820.947 420.988 840.439 417.105C850.185 415.163 857.419 412.976 862.221 411.271C864.622 410.418 866.416 409.687 867.611 409.167C868.209 408.907 868.657 408.7 868.957 408.557C869.107 408.486 869.22 408.431 869.296 408.393C869.334 408.374 869.363 408.36 869.382 408.35L869.405 408.339L869.411 408.335C869.412 408.335 869.413 408.335 869.348 408.209C869.315 408.143 869.263 408.043 869.184 407.89L869.047 407.624C868.976 407.486 868.959 407.455 868.955 407.448C868.954 407.446 868.954 407.446 868.954 407.446L868.95 407.448L868.931 407.458L868.901 407.473L868.852 407.497C868.781 407.532 868.673 407.585 868.528 407.654C868.238 407.792 867.799 407.994 867.212 408.25C866.038 408.761 864.266 409.484 861.887 410.328C857.129 412.017 849.941 414.192 840.244 416.124C820.849 419.988 791.412 422.881 751.285 418.975C671.03 411.164 548.003 376.152 377.044 267.281C205.986 158.347 82.8089 123.266 2.36309 115.435C-37.8598 111.52 -67.3961 114.418 -86.8883 118.301C-96.6341 120.243 -103.868 122.43 -108.67 124.135C-111.072 124.988 -112.865 125.719 -114.06 126.239C-114.658 126.499 -115.106 126.706 -115.406 126.849C-115.556 126.92 -115.669 126.975 -115.745 127.013C-115.783 127.032 -115.812 127.046 -115.831 127.056L-115.854 127.067L-115.86 127.07C-115.862 127.071 -115.863 127.072 -115.633 127.516ZM-117.651 135.003C-117.652 135.003 -117.652 135.003 -117.881 134.559C-118.11 134.115 -118.109 134.114 -118.108 134.113L-118.102 134.11L-118.079 134.099C-118.06 134.089 -118.031 134.074 -117.993 134.055C-117.917 134.018 -117.804 133.963 -117.654 133.891C-117.354 133.749 -116.906 133.542 -116.308 133.282C-115.113 132.762 -113.319 132.03 -110.918 131.178C-106.116 129.473 -98.8819 127.285 -89.1361 125.344C-69.6439 121.461 -40.1076 118.563 0.115313 122.478C80.5611 130.308 203.738 165.39 374.796 274.324C545.755 383.195 668.782 418.206 749.037 426.018C789.164 429.924 818.602 427.031 837.996 423.167C847.693 421.235 854.881 419.06 859.639 417.371C862.018 416.527 863.79 415.803 864.964 415.293C865.552 415.037 865.99 414.835 866.28 414.697C866.425 414.628 866.533 414.575 866.604 414.54C866.639 414.522 866.666 414.509 866.683 414.5L866.702 414.491L866.706 414.489C866.706 414.489 866.707 414.488 866.726 414.525L866.799 414.666L866.936 414.933C867.166 415.377 867.165 415.377 867.163 415.378L867.157 415.381L867.134 415.393C867.115 415.403 867.086 415.417 867.048 415.436C866.972 415.474 866.859 415.529 866.709 415.6C866.409 415.743 865.961 415.95 865.363 416.21C864.168 416.729 862.375 417.461 859.973 418.314C855.171 420.018 847.937 422.206 838.191 424.148C818.699 428.031 789.163 430.929 748.94 427.014C668.494 419.183 545.317 384.102 374.259 275.167C203.3 166.297 80.2727 131.285 0.0184318 123.473C-40.1087 119.567 -69.5464 122.461 -88.9407 126.325C-98.6382 128.257 -105.826 130.431 -110.584 132.12C-112.963 132.965 -114.735 133.688 -115.909 134.199C-116.497 134.454 -116.935 134.657 -117.225 134.794C-117.298 134.829 -117.362 134.86 -117.417 134.887C-117.47 134.912 -117.514 134.934 -117.549 134.951L-117.604 134.979L-117.628 134.991L-117.647 135.001L-117.651 135.003ZM-119.915 142.016L-119.902 142.041C-119.899 142.046 -119.899 142.046 -119.899 142.046L-119.895 142.043L-119.876 142.034C-119.859 142.025 -119.832 142.012 -119.797 141.994C-119.726 141.959 -119.618 141.906 -119.473 141.837C-119.183 141.699 -118.745 141.497 -118.157 141.242C-116.983 140.731 -115.211 140.008 -112.832 139.163C-108.074 137.474 -100.886 135.299 -91.1886 133.367C-71.7944 129.504 -42.3566 126.61 -2.22951 130.516C78.0248 138.328 201.052 173.34 372.011 282.21C543.069 391.144 666.246 426.226 746.692 434.056C786.915 437.972 816.451 435.074 835.943 431.19C845.689 429.249 852.923 427.061 857.725 425.356C860.127 424.504 861.92 423.772 863.115 423.252C863.713 422.993 864.161 422.786 864.461 422.643C864.611 422.572 864.724 422.517 864.8 422.479C864.838 422.46 864.867 422.446 864.886 422.436L864.909 422.424L864.915 422.421C864.917 422.42 864.918 422.42 864.688 421.975L864.551 421.709L864.484 421.579C864.471 421.554 864.464 421.542 864.461 421.537C864.458 421.531 864.458 421.531 864.458 421.531L864.454 421.534L864.435 421.543C864.418 421.552 864.392 421.565 864.356 421.583C864.319 421.601 864.272 421.624 864.214 421.652L864.163 421.677L864.074 421.72L864.032 421.74C863.742 421.878 863.304 422.08 862.716 422.335C861.542 422.846 859.77 423.569 857.391 424.414C852.633 426.103 845.445 428.278 835.748 430.21C816.354 434.073 786.916 436.967 746.789 433.061C666.534 425.249 543.507 390.237 372.548 281.367C201.49 172.433 78.3132 137.351 -2.13263 129.521C-42.3556 125.605 -71.8918 128.503 -91.384 132.387C-101.13 134.328 -108.364 136.516 -113.166 138.221C-115.567 139.073 -117.361 139.805 -118.556 140.325C-119.154 140.585 -119.602 140.791 -119.902 140.934C-120.052 141.005 -120.165 141.061 -120.241 141.098C-120.279 141.117 -120.308 141.132 -120.327 141.141L-120.35 141.153L-120.356 141.156C-120.357 141.157 -120.358 141.157 -120.129 141.602C-119.993 141.865 -119.938 141.973 -119.915 142.016ZM-122.147 149.088C-122.147 149.089 -122.148 149.089 -122.377 148.644C-122.606 148.2 -122.605 148.2 -122.604 148.199L-122.597 148.196L-122.575 148.184C-122.555 148.174 -122.527 148.16 -122.489 148.141C-122.413 148.103 -122.3 148.048 -122.15 147.977C-121.85 147.834 -121.401 147.627 -120.804 147.367C-119.608 146.848 -117.815 146.116 -115.414 145.264C-110.612 143.559 -103.378 141.371 -93.6318 139.43C-74.1396 135.546 -44.6034 132.648 -4.38042 136.563C76.0654 144.394 199.242 179.476 370.3 288.41C541.259 397.28 664.287 432.292 744.541 440.104C784.668 444.01 814.106 441.116 833.5 437.252C843.198 435.321 850.385 433.146 855.143 431.457C857.522 430.612 859.294 429.889 860.469 429.378C861.056 429.123 861.494 428.92 861.784 428.783C861.845 428.754 861.899 428.728 861.946 428.705C862.013 428.673 862.067 428.646 862.108 428.626C862.144 428.608 862.17 428.595 862.187 428.586L862.206 428.576L862.21 428.574C862.211 428.574 862.211 428.574 862.303 428.752L862.441 429.018C862.67 429.462 862.669 429.463 862.667 429.464L862.661 429.467L862.639 429.478C862.619 429.488 862.59 429.503 862.552 429.522C862.476 429.559 862.363 429.614 862.213 429.686C861.913 429.828 861.465 430.035 860.867 430.295C859.672 430.815 857.879 431.547 855.478 432.399C850.675 434.104 843.441 436.292 833.696 438.233C814.203 442.116 784.667 445.014 744.444 441.099C663.998 433.269 540.822 398.187 369.763 289.253C198.805 180.382 75.7769 145.371 -4.4773 137.559C-44.6044 133.653 -74.0421 136.547 -93.4364 140.41C-103.134 142.342 -110.321 144.517 -115.079 146.206C-117.459 147.05 -119.23 147.774 -120.405 148.284C-120.992 148.54 -121.43 148.742 -121.72 148.88C-121.865 148.949 -121.973 149.002 -122.044 149.037C-122.08 149.055 -122.106 149.068 -122.124 149.077L-122.142 149.086L-122.147 149.088ZM-124.625 155.687C-124.395 156.132 -124.395 156.132 -124.395 156.131L-124.39 156.129L-124.371 156.119C-124.354 156.111 -124.328 156.097 -124.292 156.08C-124.221 156.045 -124.113 155.992 -123.968 155.923C-123.678 155.785 -123.24 155.583 -122.653 155.327C-121.478 154.816 -119.706 154.093 -117.327 153.249C-112.569 151.56 -105.382 149.385 -95.6842 147.453C-76.2899 143.589 -46.8522 140.696 -6.72508 144.602C73.5292 152.413 196.557 187.425 367.515 296.296C538.574 405.23 661.75 440.312 742.196 448.142C782.419 452.057 811.956 449.159 831.448 445.276C841.193 443.334 848.427 441.147 853.23 439.442C855.631 438.59 857.424 437.858 858.62 437.338C858.988 437.178 859.299 437.038 859.554 436.921C859.713 436.848 859.85 436.783 859.966 436.729C860.116 436.657 860.228 436.602 860.304 436.564C860.342 436.546 860.371 436.531 860.391 436.521L860.413 436.51L860.419 436.507C860.421 436.506 860.422 436.505 860.193 436.061L860.055 435.795L859.977 435.644C859.963 435.617 859.963 435.617 859.963 435.617L859.958 435.619L859.94 435.629L859.894 435.652L859.86 435.668C859.789 435.704 859.681 435.756 859.536 435.825C859.246 435.963 858.808 436.166 858.221 436.421C857.046 436.932 855.274 437.655 852.895 438.5C848.137 440.189 840.95 442.363 831.252 444.295C811.858 448.159 782.42 451.053 742.293 447.147C662.039 439.335 539.011 404.323 368.053 295.452C196.994 186.518 73.8176 151.437 -6.6282 143.606C-46.8511 139.691 -76.3874 142.589 -95.8796 146.472C-105.625 148.414 -112.859 150.601 -117.662 152.306C-120.063 153.159 -121.856 153.89 -123.052 154.41C-123.649 154.67 -124.097 154.877 -124.397 155.02C-124.547 155.091 -124.66 155.146 -124.736 155.184C-124.774 155.203 -124.803 155.217 -124.823 155.227L-124.845 155.238L-124.851 155.242C-124.853 155.242 -124.854 155.243 -124.625 155.687ZM-126.642 163.174C-126.643 163.174 -126.643 163.174 -126.873 162.73C-127.102 162.286 -127.101 162.285 -127.099 162.284L-127.093 162.281L-127.071 162.27C-127.051 162.26 -127.022 162.245 -126.984 162.227C-126.908 162.189 -126.795 162.134 -126.645 162.062C-126.345 161.92 -125.897 161.713 -125.3 161.453C-124.104 160.933 -122.311 160.202 -119.91 159.349C-115.107 157.644 -107.873 155.457 -98.1276 153.515C-78.6354 149.632 -49.0991 146.734 -8.87615 150.649C71.5697 158.48 194.746 193.561 365.805 302.495C536.763 411.366 659.791 446.378 740.045 454.189C780.172 458.095 809.61 455.202 829.004 451.338C838.702 449.406 845.889 447.231 850.647 445.542C853.026 444.698 854.798 443.975 855.973 443.464C856.126 443.397 856.269 443.334 856.401 443.275C856.521 443.222 856.632 443.172 856.736 443.125C856.787 443.101 856.837 443.079 856.885 443.057L856.992 443.007C857.104 442.955 857.203 442.909 857.288 442.868C857.433 442.799 857.541 442.746 857.612 442.711C857.648 442.694 857.674 442.68 857.692 442.672L857.71 442.662L857.715 442.66C857.715 442.66 857.715 442.659 857.807 442.838L857.945 443.104C858.174 443.548 858.173 443.549 858.171 443.549L858.165 443.553L858.143 443.564C858.123 443.574 858.095 443.588 858.057 443.607C858.014 443.629 857.959 443.655 857.892 443.688C857.841 443.712 857.783 443.74 857.718 443.771C857.418 443.914 856.969 444.121 856.372 444.381C855.176 444.901 853.383 445.632 850.982 446.485C846.179 448.19 838.946 450.377 829.2 452.319C809.708 456.202 780.171 459.1 739.948 455.185C659.503 447.354 536.326 412.273 365.268 303.339C194.309 194.468 71.2812 159.456 -8.97304 151.644C-49.1002 147.738 -78.5379 150.632 -97.9322 154.496C-107.63 156.428 -114.817 158.602 -119.575 160.291C-121.954 161.136 -123.726 161.859 -124.901 162.37C-125.488 162.625 -125.926 162.828 -126.216 162.966L-126.32 163.015L-126.395 163.051C-126.454 163.08 -126.502 163.104 -126.54 163.123L-126.597 163.151L-126.619 163.162L-126.638 163.172L-126.642 163.174ZM-129.12 169.773C-128.891 170.217 -128.891 170.217 -128.89 170.217L-128.886 170.215L-128.867 170.205C-128.85 170.196 -128.824 170.183 -128.788 170.165C-128.717 170.13 -128.609 170.077 -128.464 170.008C-128.174 169.871 -127.736 169.668 -127.149 169.413C-125.974 168.902 -124.202 168.179 -121.823 167.334C-117.065 165.645 -109.877 163.471 -100.18 161.539C-80.7857 157.675 -51.3479 154.781 -11.2208 158.687C69.0334 166.499 192.061 201.511 363.02 310.381C534.078 419.316 657.255 454.397 737.701 462.228C777.924 466.143 807.46 463.245 826.952 459.361C836.698 457.42 843.932 455.232 848.734 453.528C851.135 452.675 852.929 451.943 854.124 451.424C854.298 451.348 854.459 451.277 854.608 451.211C854.656 451.189 854.702 451.168 854.748 451.148C854.848 451.102 854.943 451.06 855.03 451.019C855.201 450.941 855.348 450.872 855.47 450.814C855.54 450.781 855.601 450.751 855.655 450.725C855.717 450.695 855.768 450.67 855.809 450.65C855.847 450.631 855.876 450.617 855.895 450.607L855.918 450.595L855.924 450.592C855.925 450.591 855.926 450.591 855.697 450.147L855.56 449.88C855.496 449.758 855.476 449.72 855.47 449.708L855.468 449.703C855.467 449.703 855.467 449.703 855.467 449.703L855.463 449.705L855.444 449.714C855.427 449.723 855.4 449.736 855.365 449.754C855.294 449.789 855.186 449.842 855.041 449.911C854.751 450.049 854.312 450.251 853.725 450.507C852.551 451.017 850.779 451.741 848.4 452.585C843.641 454.274 836.454 456.449 826.757 458.381C807.362 462.244 777.925 465.138 737.798 461.232C657.543 453.42 534.516 418.409 363.557 309.538C192.499 200.604 69.3219 165.522 -11.1239 157.692C-51.3469 153.777 -80.8831 156.675 -100.375 160.558C-110.121 162.499 -117.355 164.687 -122.157 166.392C-124.559 167.244 -126.352 167.976 -127.547 168.496C-128.145 168.756 -128.593 168.963 -128.893 169.105C-129.043 169.177 -129.156 169.232 -129.232 169.269C-129.27 169.288 -129.299 169.303 -129.319 169.313L-129.341 169.324L-129.347 169.327C-129.349 169.328 -129.35 169.329 -129.12 169.773ZM-131.138 177.259C-131.139 177.26 -131.139 177.26 -131.368 176.815C-131.597 176.371 -131.596 176.371 -131.595 176.37L-131.589 176.367L-131.566 176.355C-131.547 176.345 -131.518 176.331 -131.48 176.312C-131.404 176.274 -131.291 176.219 -131.141 176.148C-130.841 176.005 -130.393 175.798 -129.795 175.538C-128.6 175.019 -126.806 174.287 -124.405 173.435C-119.603 171.73 -112.369 169.542 -102.623 167.601C-83.1309 163.717 -53.5947 160.819 -13.3717 164.734C67.0741 172.565 190.251 207.647 361.309 316.581C532.268 425.451 655.295 460.463 735.55 468.275C775.677 472.181 805.115 469.287 824.509 465.423C834.206 463.492 841.394 461.317 846.152 459.628C848.531 458.783 850.303 458.06 851.477 457.549C852.065 457.294 852.503 457.091 852.793 456.954C852.938 456.885 853.046 456.832 853.117 456.797L853.164 456.773L853.196 456.757L853.215 456.748L853.219 456.745C853.22 456.745 853.22 456.745 853.312 456.923L853.449 457.189C853.679 457.634 853.678 457.634 853.676 457.635L853.67 457.638L853.647 457.649L853.619 457.664L853.561 457.693C853.485 457.73 853.372 457.786 853.222 457.857C852.922 457.999 852.474 458.206 851.876 458.466C850.681 458.986 848.888 459.718 846.486 460.57C841.684 462.275 834.45 464.463 824.704 466.404C805.212 470.287 775.676 473.185 735.453 469.27C655.007 461.44 531.83 426.358 360.772 317.424C189.813 208.553 66.7857 173.542 -13.4686 165.73C-53.5957 161.824 -83.0335 164.718 -102.428 168.581C-112.125 170.513 -119.313 172.688 -124.071 174.377C-126.45 175.221 -128.222 175.945 -129.396 176.455C-129.984 176.711 -130.422 176.913 -130.712 177.051C-130.765 177.076 -130.813 177.1 -130.857 177.12L-130.907 177.145L-130.959 177.17L-131.036 177.208L-131.082 177.231L-131.115 177.248L-131.134 177.257L-131.138 177.259ZM-133.616 183.858C-133.387 184.303 -133.387 184.303 -133.386 184.302L-133.382 184.3L-133.363 184.29C-133.346 184.282 -133.319 184.268 -133.284 184.251C-133.213 184.216 -133.105 184.163 -132.96 184.094C-132.67 183.956 -132.232 183.754 -131.644 183.498C-130.47 182.987 -128.698 182.264 -126.319 181.42C-121.561 179.731 -114.373 177.556 -104.676 175.624C-85.2814 171.76 -55.8436 168.867 -15.7165 172.773C64.5377 180.584 187.565 215.596 358.524 324.467C529.582 433.401 652.759 468.482 733.205 476.313C773.428 480.228 802.964 477.33 822.456 473.447C832.202 471.505 839.436 469.318 844.238 467.613C846.64 466.761 848.433 466.029 849.628 465.509C850.226 465.249 850.674 465.042 850.974 464.9C851.124 464.828 851.237 464.773 851.313 464.735C851.351 464.717 851.38 464.702 851.399 464.692L851.422 464.681L851.428 464.678C851.428 464.678 851.428 464.677 851.428 464.677C851.428 464.676 851.427 464.672 851.422 464.664C851.408 464.634 851.359 464.539 851.201 464.232L851.064 463.966C850.972 463.788 850.972 463.788 850.971 463.788L850.967 463.79L850.948 463.8L850.92 463.814L850.869 463.839C850.839 463.854 850.803 463.872 850.76 463.893C850.7 463.922 850.629 463.956 850.545 463.996C850.255 464.134 849.817 464.337 849.229 464.592C848.055 465.103 846.283 465.826 843.904 466.67C839.146 468.36 831.958 470.534 822.261 472.466C802.867 476.33 773.429 479.224 733.302 475.318C653.047 467.506 530.02 432.494 359.061 323.623C188.003 214.689 64.8262 179.608 -15.6197 171.777C-55.8426 167.862 -85.3789 170.76 -104.871 174.643C-114.617 176.585 -121.851 178.772 -126.653 180.477C-129.054 181.33 -130.848 182.061 -132.043 182.581C-132.641 182.841 -133.089 183.048 -133.389 183.191C-133.539 183.262 -133.652 183.317 -133.728 183.355C-133.766 183.374 -133.795 183.388 -133.814 183.398L-133.837 183.409L-133.843 183.413C-133.844 183.413 -133.845 183.414 -133.616 183.858ZM-135.634 191.345C-135.634 191.345 -135.635 191.345 -135.864 190.901C-136.093 190.457 -136.092 190.456 -136.091 190.455L-136.084 190.452L-136.062 190.441C-136.042 190.431 -136.014 190.416 -135.976 190.398C-135.9 190.36 -135.787 190.305 -135.637 190.233C-135.337 190.091 -134.888 189.884 -134.291 189.624C-133.095 189.104 -131.302 188.373 -128.901 187.52C-124.099 185.815 -116.865 183.628 -107.119 181.686C-87.6266 177.803 -58.0904 174.905 -17.8674 178.82C62.5784 186.651 185.755 221.732 356.813 330.666C527.772 439.537 650.8 474.549 731.054 482.36C771.181 486.266 800.619 483.373 820.013 479.509C829.711 477.577 836.898 475.402 841.656 473.713C844.035 472.869 845.807 472.146 846.982 471.635C847.24 471.522 847.469 471.42 847.67 471.329L847.808 471.267C848.002 471.178 848.165 471.102 848.297 471.039C848.442 470.97 848.55 470.917 848.621 470.882C848.657 470.865 848.683 470.851 848.7 470.843L848.719 470.833L848.723 470.831C848.724 470.831 848.724 470.83 848.816 471.008L848.953 471.275C849.053 471.467 849.109 471.576 849.14 471.638C849.182 471.72 849.181 471.72 849.18 471.72L849.174 471.724L849.152 471.735C849.132 471.745 849.103 471.759 849.065 471.778C848.989 471.816 848.876 471.871 848.726 471.942C848.558 472.022 848.344 472.122 848.084 472.24C847.878 472.333 847.644 472.437 847.38 472.552C846.185 473.072 844.392 473.803 841.991 474.656C837.188 476.361 829.954 478.548 820.208 480.49C800.716 484.373 771.18 487.271 730.957 483.356C650.511 475.525 527.335 440.444 356.276 331.51C185.318 222.639 62.2899 187.627 -17.9643 179.815C-58.0914 175.909 -87.5292 178.803 -106.923 182.667C-116.621 184.599 -123.808 186.773 -128.566 188.462C-130.946 189.307 -132.717 190.03 -133.892 190.541C-134.479 190.796 -134.917 190.999 -135.207 191.137C-135.352 191.206 -135.46 191.258 -135.532 191.294L-135.574 191.315L-135.611 191.333L-135.629 191.343L-135.634 191.345ZM-138.112 197.944C-137.883 198.388 -137.882 198.388 -137.882 198.388L-137.877 198.386L-137.859 198.376C-137.841 198.367 -137.815 198.354 -137.779 198.336C-137.708 198.301 -137.6 198.248 -137.455 198.179C-137.165 198.042 -136.727 197.839 -136.14 197.584C-134.965 197.073 -133.193 196.35 -130.814 195.505C-126.056 193.816 -118.869 191.642 -109.171 189.71C-89.7771 185.846 -60.3394 182.952 -20.2123 186.858C60.042 194.67 183.07 229.682 354.028 338.552C525.087 447.487 648.263 482.568 728.709 490.399C768.932 494.314 798.468 491.416 817.961 487.532C827.706 485.591 834.94 483.403 839.743 481.699C842.144 480.846 843.937 480.114 845.132 479.595C845.73 479.335 846.178 479.128 846.478 478.985C846.628 478.914 846.741 478.859 846.817 478.821C846.855 478.802 846.884 478.788 846.904 478.778L846.926 478.766L846.932 478.763C846.934 478.762 846.935 478.762 846.706 478.318L846.568 478.051C846.476 477.873 846.476 477.873 846.475 477.874L846.471 477.876L846.452 477.885L846.425 477.899L846.373 477.925C846.334 477.944 846.284 477.969 846.223 477.998C846.193 478.013 846.16 478.029 846.124 478.046L846.049 478.082C845.759 478.22 845.321 478.422 844.734 478.678C843.559 479.188 841.787 479.912 839.408 480.756C834.65 482.445 827.463 484.62 817.765 486.552C798.371 490.415 768.933 493.309 728.806 489.403C648.552 481.591 525.524 446.58 354.565 337.709C183.507 228.775 60.3304 193.693 -20.1154 185.863C-60.3383 181.948 -89.8746 184.846 -109.367 188.729C-119.113 190.67 -126.346 192.858 -131.149 194.563C-133.55 195.415 -135.343 196.147 -136.539 196.667C-137.136 196.927 -137.585 197.134 -137.885 197.276C-138.035 197.348 -138.148 197.403 -138.224 197.44L-138.284 197.471L-138.31 197.484L-138.332 197.495L-138.339 197.498C-138.34 197.499 -138.341 197.5 -138.112 197.944ZM-140.129 205.431C-140.13 205.431 -140.13 205.431 -140.36 204.987C-140.589 204.542 -140.588 204.542 -140.586 204.541L-140.58 204.538L-140.558 204.526C-140.538 204.517 -140.509 204.502 -140.471 204.483C-140.395 204.446 -140.282 204.39 -140.132 204.319C-139.832 204.176 -139.384 203.97 -138.787 203.71C-137.591 203.19 -135.798 202.458 -133.397 201.606C-128.594 199.901 -121.36 197.713 -111.615 195.772C-92.1224 191.888 -62.5861 188.99 -22.3632 192.906C58.0827 200.736 181.259 235.818 352.318 344.752C523.276 453.622 646.304 488.634 726.558 496.446C766.685 500.352 796.123 497.458 815.517 493.595C825.215 491.663 832.402 489.488 837.16 487.799C839.539 486.954 841.311 486.231 842.486 485.72C843.073 485.465 843.511 485.263 843.801 485.125C843.946 485.056 844.054 485.003 844.125 484.968C844.161 484.95 844.187 484.937 844.205 484.928L844.223 484.919L844.228 484.916C844.228 484.916 844.228 484.916 844.32 485.094L844.458 485.36C844.532 485.504 844.582 485.601 844.616 485.667C844.642 485.718 844.658 485.75 844.668 485.77C844.686 485.805 844.685 485.806 844.684 485.806L844.678 485.809L844.656 485.82L844.629 485.834L844.57 485.864C844.494 485.901 844.381 485.957 844.231 486.028C843.931 486.171 843.482 486.377 842.885 486.637C841.689 487.157 839.896 487.889 837.495 488.741C832.693 490.446 825.459 492.634 815.713 494.575C796.221 498.458 766.684 501.357 726.461 497.441C646.016 489.611 522.839 454.529 351.781 345.595C180.822 236.725 57.7942 201.713 -22.46 193.901C-62.5872 189.995 -92.0249 192.889 -111.419 196.752C-121.117 198.684 -128.304 200.859 -133.062 202.548C-135.441 203.393 -137.213 204.116 -138.388 204.627C-138.975 204.882 -139.413 205.084 -139.703 205.222C-139.774 205.256 -139.837 205.286 -139.89 205.312C-139.945 205.339 -139.991 205.361 -140.027 205.379C-140.063 205.397 -140.089 205.41 -140.106 205.419L-140.125 205.428L-140.129 205.431ZM-142.397 212.436C-142.378 212.474 -142.378 212.473 -142.377 212.473L-142.373 212.471L-142.354 212.462L-142.309 212.439L-142.275 212.422C-142.204 212.387 -142.096 212.334 -141.951 212.265C-141.661 212.127 -141.223 211.925 -140.636 211.669C-139.461 211.159 -137.689 210.435 -135.31 209.591C-130.552 207.902 -123.364 205.727 -113.667 203.795C-94.2727 199.931 -64.8349 197.038 -24.7078 200.944C55.5464 208.756 178.574 243.767 349.533 352.638C520.591 461.572 643.768 496.654 724.214 504.484C764.436 508.399 793.973 505.501 813.465 501.618C823.211 499.676 830.445 497.489 835.247 495.784C837.648 494.932 839.442 494.2 840.637 493.68C841.235 493.42 841.683 493.213 841.983 493.071C842.133 492.999 842.246 492.944 842.322 492.907C842.36 492.888 842.389 492.873 842.408 492.863L842.431 492.852L842.437 492.849C842.438 492.848 842.439 492.847 842.21 492.403L842.073 492.137C841.981 491.959 841.98 491.959 841.98 491.959L841.976 491.961L841.957 491.971L841.919 491.99L841.878 492.011C841.806 492.046 841.699 492.099 841.554 492.168C841.263 492.305 840.825 492.508 840.238 492.763C839.063 493.274 837.292 493.997 834.913 494.842C830.154 496.531 822.967 498.705 813.27 500.637C793.875 504.501 764.438 507.395 724.31 503.489C644.056 495.677 521.029 460.665 350.07 351.795C179.012 242.86 55.8349 207.779 -24.6109 199.948C-64.8339 196.033 -94.3701 198.931 -113.862 202.814C-123.608 204.756 -130.842 206.944 -135.644 208.648C-138.046 209.501 -139.839 210.233 -141.034 210.752C-141.632 211.012 -142.08 211.219 -142.38 211.362L-142.468 211.404L-142.567 211.452C-142.611 211.473 -142.649 211.492 -142.682 211.508L-142.719 211.526C-142.757 211.545 -142.786 211.559 -142.806 211.569L-142.828 211.581L-142.834 211.584C-142.836 211.585 -142.837 211.585 -142.607 212.029L-142.486 212.265L-142.397 212.436ZM-144.625 219.516C-144.626 219.516 -144.626 219.517 -144.855 219.072C-145.085 218.628 -145.084 218.627 -145.082 218.627L-145.076 218.623L-145.053 218.612L-145.035 218.602L-144.967 218.569C-144.891 218.531 -144.778 218.476 -144.628 218.405C-144.328 218.262 -143.88 218.055 -143.282 217.795C-142.087 217.275 -140.294 216.544 -137.892 215.691C-133.09 213.986 -125.856 211.799 -116.11 209.857C-96.6181 205.974 -67.0818 203.076 -26.8589 206.991C53.5869 214.822 176.764 249.903 347.822 358.837C518.781 467.708 641.808 502.72 722.063 510.532C762.19 514.438 791.627 511.544 811.022 507.68C820.719 505.748 827.907 503.574 832.665 501.884C835.044 501.04 836.816 500.317 837.99 499.806C838.577 499.55 839.016 499.348 839.306 499.21C839.451 499.141 839.559 499.089 839.63 499.053L839.676 499.03L839.709 499.014L839.728 499.004L839.732 499.002C839.732 499.002 839.733 499.002 839.825 499.18L839.962 499.446C840.191 499.89 840.19 499.891 840.189 499.892L840.183 499.895L840.16 499.906L840.128 499.922L840.074 499.949C839.998 499.987 839.885 500.042 839.735 500.114C839.435 500.256 838.987 500.463 838.389 500.723C837.194 501.243 835.4 501.974 832.999 502.827C828.197 504.532 820.963 506.719 811.217 508.661C791.725 512.544 762.189 515.442 721.966 511.527C641.52 503.696 518.343 468.615 347.285 359.681C176.326 250.81 53.2985 215.798 -26.9558 207.987C-67.0829 204.081 -96.5206 206.974 -115.915 210.838C-125.612 212.77 -132.8 214.945 -137.558 216.634C-139.937 217.478 -141.709 218.201 -142.883 218.712C-143.471 218.968 -143.909 219.17 -144.199 219.308C-144.344 219.377 -144.452 219.43 -144.523 219.465C-144.559 219.482 -144.585 219.496 -144.602 219.504L-144.621 219.514L-144.625 219.516ZM-147.103 226.115C-146.874 226.559 -146.874 226.559 -146.873 226.559L-146.869 226.557L-146.85 226.547C-146.833 226.538 -146.806 226.525 -146.771 226.507C-146.7 226.472 -146.592 226.419 -146.447 226.35C-146.157 226.213 -145.719 226.01 -145.131 225.755C-143.957 225.244 -142.185 224.521 -139.806 223.676C-135.048 221.987 -127.86 219.813 -118.163 217.881C-98.7684 214.017 -69.3307 211.123 -29.2035 215.029C51.0507 222.841 174.078 257.853 345.037 366.723C516.095 475.658 639.272 510.739 719.718 518.57C759.941 522.485 789.477 519.587 808.969 515.703C818.715 513.762 825.949 511.574 830.751 509.87C833.153 509.017 834.946 508.285 836.141 507.766C836.739 507.506 837.187 507.299 837.487 507.156C837.599 507.103 837.691 507.058 837.762 507.024L837.826 506.992C837.864 506.973 837.893 506.959 837.912 506.949L837.935 506.937L837.941 506.934C837.941 506.934 837.941 506.934 837.941 506.933L837.94 506.931L837.939 506.929C837.935 506.919 837.921 506.891 837.879 506.808C837.845 506.742 837.793 506.642 837.714 506.489L837.577 506.222L837.517 506.107L837.494 506.063L837.486 506.047C837.484 506.045 837.484 506.045 837.484 506.045L837.48 506.047L837.461 506.056C837.444 506.065 837.417 506.078 837.382 506.096C837.311 506.131 837.203 506.184 837.058 506.253C836.768 506.391 836.33 506.593 835.742 506.849C834.568 507.359 832.796 508.083 830.417 508.927C825.659 510.616 818.471 512.791 808.774 514.723C789.38 518.586 759.942 521.48 719.815 517.574C639.56 509.762 516.533 474.751 345.574 365.88C174.516 256.946 51.3392 221.864 -29.1067 214.034C-69.3296 210.119 -98.8659 213.017 -118.358 216.9C-128.104 218.841 -135.338 221.029 -140.14 222.734C-142.541 223.586 -144.335 224.318 -145.53 224.838C-146.128 225.098 -146.576 225.305 -146.876 225.447C-147.026 225.519 -147.139 225.574 -147.215 225.611C-147.253 225.63 -147.282 225.645 -147.301 225.655L-147.324 225.666L-147.33 225.669C-147.331 225.67 -147.332 225.671 -147.103 226.115ZM-149.121 233.601C-149.121 233.602 -149.122 233.602 -149.351 233.158C-149.463 232.941 -149.52 232.829 -149.549 232.772C-149.567 232.737 -149.574 232.722 -149.577 232.716C-149.578 232.712 -149.578 232.712 -149.578 232.712L-149.572 232.709L-149.549 232.697C-149.529 232.688 -149.501 232.673 -149.463 232.654C-149.387 232.617 -149.274 232.561 -149.124 232.49C-148.824 232.347 -148.375 232.14 -147.778 231.881C-146.582 231.361 -144.789 230.629 -142.388 229.777C-137.586 228.072 -130.352 225.884 -120.606 223.943C-101.114 220.059 -71.5774 217.161 -31.3545 221.077C49.0914 228.907 172.268 263.989 343.326 372.923C514.285 481.793 637.313 516.805 717.567 524.617C757.694 528.523 787.132 525.629 806.526 521.766C816.224 519.834 823.411 517.659 828.169 515.97C830.548 515.125 832.32 514.402 833.495 513.891C833.676 513.813 833.843 513.739 833.995 513.67C834.338 513.517 834.609 513.391 834.81 513.296C834.955 513.227 835.063 513.174 835.134 513.139C835.17 513.121 835.196 513.108 835.213 513.099L835.232 513.09L835.236 513.087C835.237 513.087 835.237 513.087 835.329 513.265L835.466 513.531C835.696 513.976 835.695 513.976 835.693 513.977L835.687 513.98L835.665 513.991C835.645 514.001 835.616 514.016 835.578 514.035C835.502 514.072 835.389 514.128 835.239 514.199C835.127 514.252 834.994 514.314 834.841 514.385C834.583 514.504 834.268 514.646 833.893 514.808C832.698 515.328 830.905 516.06 828.504 516.912C823.701 518.617 816.467 520.805 806.721 522.746C787.229 526.63 757.693 529.528 717.47 525.612C637.024 517.782 513.848 482.7 342.789 373.766C171.831 264.896 48.8029 229.884 -31.4513 222.072C-71.5785 218.166 -101.016 221.06 -120.41 224.923C-130.108 226.855 -137.295 229.03 -142.053 230.719C-144.433 231.564 -146.204 232.287 -147.379 232.798C-147.966 233.053 -148.404 233.255 -148.694 233.393C-148.839 233.462 -148.947 233.515 -149.019 233.55C-149.054 233.568 -149.08 233.581 -149.098 233.59L-149.116 233.599L-149.121 233.601ZM-151.599 240.2C-151.37 240.645 -151.369 240.645 -151.369 240.644L-151.364 240.642L-151.346 240.633C-151.328 240.624 -151.302 240.611 -151.266 240.593C-151.195 240.558 -151.087 240.505 -150.942 240.436C-150.652 240.298 -150.214 240.096 -149.627 239.84C-148.452 239.33 -146.681 238.606 -144.301 237.762C-139.543 236.073 -132.356 233.898 -122.658 231.966C-103.264 228.102 -73.8264 225.209 -33.6993 229.115C46.555 236.927 169.583 271.938 340.541 380.809C511.6 489.743 634.776 524.825 715.222 532.655C755.445 536.57 784.981 533.672 804.474 529.789C814.219 527.847 821.453 525.66 826.256 523.955C828.657 523.103 830.45 522.371 831.645 521.851C832.243 521.591 832.691 521.384 832.991 521.242C833.141 521.17 833.254 521.115 833.33 521.077C833.368 521.059 833.397 521.044 833.417 521.034L833.439 521.023L833.445 521.02C833.447 521.019 833.448 521.018 833.219 520.574L833.081 520.308C832.989 520.13 832.989 520.13 832.988 520.13L832.984 520.132L832.965 520.142C832.948 520.151 832.922 520.164 832.886 520.182C832.815 520.217 832.707 520.27 832.562 520.339C832.272 520.476 831.834 520.679 831.247 520.934C830.072 521.445 828.3 522.168 825.921 523.013C821.163 524.702 813.976 526.876 804.278 528.808C784.884 532.672 755.446 535.566 715.319 531.66C635.065 523.848 512.037 488.836 341.078 379.965C170.02 271.031 46.8434 235.95 -33.6024 228.119C-73.8253 224.204 -103.362 227.102 -122.854 230.985C-132.6 232.927 -139.834 235.115 -144.636 236.819C-147.037 237.672 -148.83 238.404 -150.026 238.923C-150.623 239.183 -151.072 239.39 -151.372 239.533C-151.522 239.604 -151.635 239.659 -151.711 239.697C-151.749 239.716 -151.777 239.73 -151.797 239.74L-151.819 239.752L-151.826 239.755C-151.827 239.756 -151.828 239.756 -151.599 240.2ZM-153.616 247.687C-153.617 247.687 -153.617 247.687 -153.847 247.243C-154.076 246.799 -154.075 246.798 -154.073 246.798L-154.067 246.794L-154.045 246.783C-154.025 246.773 -153.996 246.759 -153.958 246.74C-153.882 246.702 -153.769 246.647 -153.619 246.576C-153.319 246.433 -152.871 246.226 -152.274 245.966C-151.078 245.446 -149.285 244.715 -146.884 243.862C-142.081 242.157 -134.847 239.97 -125.102 238.028C-105.609 234.145 -76.0731 231.247 -35.8502 235.162C44.5957 242.993 167.772 278.074 338.831 387.008C509.789 495.879 632.817 530.891 713.071 538.703C753.198 542.608 782.636 539.715 802.03 535.851C811.728 533.919 818.915 531.745 823.673 530.055C826.052 529.211 827.824 528.488 828.999 527.977C829.1 527.933 829.197 527.89 829.29 527.849C829.463 527.773 829.621 527.702 829.763 527.637C829.985 527.536 830.168 527.451 830.314 527.381C830.459 527.312 830.567 527.26 830.638 527.224L830.685 527.201L830.718 527.185L830.736 527.175L830.741 527.173C830.741 527.173 830.741 527.173 830.833 527.351L830.971 527.617C831.2 528.061 831.199 528.062 831.197 528.063L831.191 528.066L831.169 528.077C831.149 528.087 831.121 528.101 831.082 528.12C831.042 528.141 830.99 528.166 830.928 528.196C830.874 528.222 830.813 528.252 830.744 528.284C830.444 528.427 829.995 528.634 829.398 528.894C828.202 529.414 826.409 530.145 824.008 530.998C819.205 532.703 811.972 534.89 802.226 536.832C782.734 540.715 753.197 543.613 712.974 539.698C632.528 531.867 509.352 496.786 338.293 387.852C167.335 278.981 44.3072 243.969 -35.9471 236.158C-76.0742 232.252 -105.512 235.145 -124.906 239.009C-134.604 240.941 -141.791 243.116 -146.549 244.805C-148.928 245.649 -150.7 246.372 -151.875 246.883C-152.462 247.139 -152.9 247.341 -153.19 247.479C-153.335 247.548 -153.443 247.6 -153.514 247.636C-153.55 247.653 -153.576 247.667 -153.593 247.675L-153.612 247.685L-153.616 247.687ZM-156.095 254.286C-155.865 254.73 -155.865 254.73 -155.864 254.73L-155.86 254.728L-155.841 254.718C-155.824 254.709 -155.798 254.696 -155.762 254.679C-155.691 254.643 -155.583 254.59 -155.438 254.522C-155.148 254.384 -154.71 254.181 -154.123 253.926C-152.948 253.415 -151.176 252.692 -148.797 251.847C-144.039 250.158 -136.852 247.984 -127.154 246.052C-107.76 242.188 -78.3221 239.294 -38.195 243.2C42.0592 251.012 165.087 286.024 336.046 394.895C507.104 503.829 630.281 538.91 710.726 546.741C750.949 550.656 780.486 547.758 799.978 543.875C809.724 541.933 816.958 539.745 821.76 538.041C824.161 537.188 825.954 536.457 827.15 535.937C827.263 535.888 827.371 535.84 827.473 535.795C827.912 535.601 828.252 535.443 828.496 535.327C828.55 535.301 828.6 535.277 828.645 535.256C828.692 535.233 828.733 535.213 828.769 535.195L828.835 535.163C828.873 535.144 828.901 535.13 828.921 535.12L828.943 535.108L828.949 535.105C828.951 535.105 828.952 535.104 828.723 534.66L828.585 534.393L828.509 534.246C828.493 534.216 828.493 534.216 828.493 534.216L828.488 534.218L828.47 534.228C828.452 534.236 828.426 534.249 828.39 534.267C828.319 534.302 828.211 534.355 828.066 534.424C827.776 534.562 827.338 534.764 826.751 535.02C825.576 535.53 823.804 536.254 821.425 537.098C816.667 538.787 809.48 540.962 799.782 542.894C780.388 546.758 750.95 549.651 710.823 545.745C630.569 537.934 507.541 502.922 336.583 394.051C165.524 285.117 42.3477 250.035 -38.0981 242.205C-78.3211 238.29 -107.857 241.188 -127.35 245.071C-137.095 247.013 -144.329 249.2 -149.132 250.905C-151.533 251.757 -153.326 252.489 -154.521 253.009C-155.119 253.269 -155.567 253.476 -155.867 253.618C-156.017 253.69 -156.13 253.745 -156.206 253.783L-156.25 253.804L-156.293 253.826L-156.315 253.837L-156.321 253.84C-156.323 253.841 -156.324 253.842 -156.095 254.286ZM-158.112 261.773C-158.113 261.773 -158.113 261.773 -158.342 261.329C-158.572 260.884 -158.571 260.884 -158.569 260.883L-158.563 260.88L-158.54 260.869L-158.503 260.85L-158.454 260.825C-158.378 260.788 -158.265 260.732 -158.115 260.661C-157.815 260.519 -157.367 260.312 -156.769 260.052C-155.574 259.532 -153.781 258.8 -151.379 257.948C-146.577 256.243 -139.343 254.055 -129.597 252.114C-110.105 248.231 -80.5689 245.333 -40.3459 249.248C40.0999 257.078 163.277 292.16 334.335 401.094C505.294 509.964 628.321 544.976 708.576 552.788C748.703 556.694 778.14 553.8 797.535 549.937C807.232 548.005 814.42 545.83 819.178 544.141C821.557 543.296 823.329 542.573 824.503 542.062C825.091 541.807 825.529 541.605 825.819 541.467C825.869 541.443 825.915 541.421 825.957 541.401C826.034 541.363 826.096 541.333 826.143 541.31L826.172 541.295L826.222 541.27L826.241 541.261L826.245 541.259C826.245 541.258 826.246 541.258 826.338 541.436L826.475 541.702C826.704 542.147 826.703 542.147 826.702 542.148L826.696 542.151L826.673 542.163C826.654 542.173 826.625 542.187 826.587 542.206C826.548 542.225 826.499 542.249 826.44 542.278C826.385 542.305 826.321 542.335 826.248 542.37C825.948 542.513 825.5 542.72 824.902 542.98C823.707 543.499 821.913 544.231 819.512 545.083C814.71 546.788 807.476 548.976 797.73 550.917C778.238 554.801 748.702 557.699 708.479 553.783C628.033 545.953 504.856 510.871 333.798 401.937C162.839 293.067 39.8115 258.055 -40.4428 250.243C-80.5699 246.337 -110.008 249.231 -129.402 253.095C-139.099 255.026 -146.287 257.201 -151.045 258.89C-153.424 259.735 -155.196 260.458 -156.37 260.969C-156.958 261.224 -157.396 261.426 -157.686 261.564C-157.831 261.633 -157.939 261.686 -158.01 261.721C-158.046 261.739 -158.072 261.752 -158.089 261.761L-158.108 261.77L-158.112 261.773ZM-160.59 268.372C-160.361 268.816 -160.361 268.816 -160.36 268.815L-160.356 268.813L-160.337 268.804C-160.32 268.795 -160.293 268.782 -160.258 268.764C-160.187 268.729 -160.079 268.676 -159.934 268.607C-159.644 268.469 -159.206 268.267 -158.618 268.012C-157.444 267.501 -155.672 266.778 -153.293 265.933C-148.535 264.244 -141.347 262.069 -131.65 260.137C-112.255 256.274 -82.8177 253.38 -42.6906 257.286C37.5637 265.098 160.591 300.11 331.55 408.98C502.608 517.914 625.785 552.996 706.231 560.826C746.454 564.741 775.99 561.843 795.482 557.96C805.228 556.019 812.462 553.831 817.264 552.126C819.666 551.274 821.459 550.542 822.654 550.022C823.252 549.762 823.7 549.555 824 549.413C824.15 549.342 824.263 549.286 824.339 549.249C824.377 549.23 824.406 549.215 824.425 549.205L824.448 549.194L824.454 549.191C824.456 549.19 824.457 549.19 824.227 548.745L824.09 548.479C823.998 548.301 823.998 548.301 823.997 548.301L823.993 548.304L823.974 548.313C823.957 548.322 823.93 548.335 823.895 548.353C823.824 548.388 823.716 548.441 823.571 548.51C823.281 548.647 822.843 548.85 822.255 549.105C821.081 549.616 819.309 550.339 816.93 551.184C812.172 552.873 804.984 555.048 795.287 556.979C775.893 560.843 746.455 563.737 706.328 559.831C626.073 552.019 503.046 517.007 332.087 408.137C161.029 299.203 37.8521 264.121 -42.5937 256.291C-82.8166 252.375 -112.353 255.273 -131.845 259.157C-141.591 261.098 -148.825 263.286 -153.627 264.991C-156.028 265.843 -157.822 266.575 -159.017 267.095C-159.615 267.354 -160.063 267.561 -160.363 267.704C-160.513 267.775 -160.626 267.83 -160.702 267.868C-160.74 267.887 -160.769 267.901 -160.788 267.911L-160.811 267.923L-160.817 267.926C-160.818 267.927 -160.819 267.927 -160.59 268.372ZM-162.608 275.858C-162.609 275.858 -162.609 275.859 -162.838 275.414C-163.067 274.97 -163.066 274.969 -163.065 274.969L-163.059 274.965L-163.036 274.954C-163.017 274.944 -162.988 274.93 -162.95 274.911C-162.874 274.873 -162.761 274.818 -162.611 274.747C-162.311 274.604 -161.863 274.397 -161.265 274.137C-160.07 273.617 -158.276 272.886 -155.875 272.033C-151.073 270.328 -143.839 268.141 -134.093 266.199C-114.601 262.316 -85.0646 259.418 -44.8416 263.333C35.6042 271.164 158.781 306.245 329.839 415.179C500.798 524.05 623.825 559.062 704.08 566.874C744.207 570.78 773.645 567.886 793.039 564.022C802.736 562.09 809.924 559.916 814.682 558.226C817.061 557.382 818.833 556.659 820.007 556.148C820.595 555.892 821.033 555.69 821.323 555.552C821.468 555.483 821.576 555.431 821.647 555.395C821.683 555.378 821.709 555.364 821.726 555.356L821.745 555.346L821.749 555.344C821.75 555.344 821.75 555.344 821.842 555.522L821.979 555.788C822.209 556.232 822.208 556.233 822.206 556.234L822.2 556.237L822.177 556.248C822.158 556.258 822.129 556.273 822.091 556.291C822.015 556.329 821.902 556.384 821.752 556.456C821.452 556.598 821.004 556.805 820.406 557.065C819.211 557.585 817.418 558.316 815.016 559.169C810.214 560.874 802.98 563.061 793.234 565.003C773.742 568.886 744.206 571.784 703.983 567.869C623.537 560.038 500.36 524.957 329.302 416.023C158.343 307.152 35.3157 272.14 -44.9385 264.329C-85.0656 260.423 -114.503 263.316 -133.898 267.18C-143.595 269.112 -150.783 271.287 -155.541 272.976C-157.92 273.82 -159.692 274.543 -160.866 275.054C-161.454 275.31 -161.892 275.512 -162.182 275.65C-162.327 275.719 -162.435 275.771 -162.506 275.807C-162.541 275.824 -162.568 275.838 -162.585 275.846L-162.604 275.856L-162.608 275.858ZM-165.086 282.457C-164.857 282.901 -164.856 282.901 -164.856 282.901L-164.851 282.899L-164.833 282.889C-164.815 282.88 -164.789 282.867 -164.753 282.85C-164.682 282.814 -164.574 282.761 -164.429 282.693C-164.139 282.555 -163.701 282.352 -163.114 282.097C-161.939 281.586 -160.168 280.863 -157.788 280.018C-153.03 278.329 -145.843 276.155 -136.145 274.223C-116.751 270.359 -87.3134 267.465 -47.1863 271.371C33.068 279.183 156.096 314.195 327.054 423.066C498.113 532 621.289 567.081 701.735 574.912C741.958 578.827 771.494 575.929 790.987 572.046C800.732 570.104 807.966 567.916 812.769 566.212C815.17 565.359 816.963 564.628 818.158 564.108C818.756 563.848 819.204 563.641 819.504 563.498C819.584 563.461 819.653 563.427 819.711 563.399C819.763 563.374 819.807 563.352 819.843 563.334C819.881 563.315 819.91 563.301 819.93 563.291L819.952 563.279L819.958 563.276C819.96 563.276 819.961 563.275 819.732 562.831L819.594 562.564C819.502 562.386 819.502 562.387 819.501 562.387L819.497 562.389L819.478 562.399C819.461 562.407 819.435 562.42 819.399 562.438C819.36 562.457 819.311 562.482 819.25 562.511C819.199 562.536 819.141 562.564 819.075 562.595C818.785 562.733 818.347 562.935 817.76 563.191C816.585 563.701 814.813 564.425 812.434 565.269C807.676 566.958 800.489 569.133 790.791 571.065C771.397 574.929 741.959 577.822 701.832 573.916C621.578 566.105 498.55 531.093 327.591 422.222C156.533 313.288 33.3564 278.206 -47.0894 270.376C-87.3124 266.461 -116.849 269.359 -136.341 273.242C-146.087 275.184 -153.321 277.371 -158.123 279.076C-160.524 279.928 -162.317 280.66 -163.513 281.18C-164.11 281.44 -164.559 281.647 -164.859 281.789C-165.009 281.861 -165.122 281.916 -165.198 281.954C-165.236 281.972 -165.264 281.987 -165.284 281.997L-165.306 282.008L-165.313 282.011C-165.314 282.012 -165.315 282.013 -165.086 282.457ZM-167.104 289.944C-167.104 289.944 -167.104 289.944 -167.334 289.5C-167.563 289.055 -167.562 289.055 -167.56 289.054L-167.554 289.051L-167.532 289.04C-167.512 289.03 -167.483 289.015 -167.445 288.996C-167.369 288.959 -167.256 288.903 -167.106 288.832C-166.806 288.69 -166.358 288.483 -165.761 288.223C-164.565 287.703 -162.772 286.971 -160.371 286.119C-155.568 284.414 -148.334 282.226 -138.589 280.285C-119.096 276.402 -89.5601 273.504 -49.3372 277.419C31.1086 285.249 154.285 320.331 325.344 429.265C496.302 538.136 619.33 573.147 699.584 580.959C739.711 584.865 769.149 581.971 788.543 578.108C798.241 576.176 805.428 574.001 810.186 572.312C812.565 571.467 814.337 570.744 815.512 570.233C816.099 569.978 816.537 569.776 816.827 569.638C816.972 569.569 817.08 569.516 817.151 569.481L817.187 569.463L817.231 569.441L817.249 569.432L817.254 569.43C817.254 569.429 817.254 569.429 817.346 569.607L817.484 569.873C817.601 570.101 817.658 570.213 817.686 570.267C817.712 570.318 817.711 570.319 817.71 570.319L817.704 570.322L817.682 570.334C817.662 570.344 817.633 570.358 817.595 570.377C817.519 570.415 817.407 570.47 817.257 570.541C816.957 570.684 816.508 570.891 815.911 571.151C814.715 571.67 812.922 572.402 810.521 573.254C805.718 574.959 798.484 577.147 788.739 579.088C769.247 582.972 739.71 585.87 699.487 581.954C619.041 574.124 495.865 539.042 324.806 430.108C153.848 321.238 30.8202 286.226 -49.4341 278.414C-89.5612 274.508 -118.999 277.402 -138.393 281.266C-148.091 283.197 -155.278 285.372 -160.036 287.061C-162.415 287.906 -164.187 288.629 -165.362 289.14C-165.949 289.395 -166.387 289.597 -166.677 289.735C-166.822 289.804 -166.93 289.857 -167.001 289.892C-167.037 289.91 -167.063 289.923 -167.08 289.932L-167.099 289.941L-167.104 289.944ZM-169.582 296.543C-169.352 296.987 -169.352 296.987 -169.351 296.986L-169.347 296.984L-169.328 296.975C-169.311 296.966 -169.285 296.953 -169.249 296.935C-169.178 296.9 -169.07 296.847 -168.925 296.778C-168.635 296.64 -168.197 296.438 -167.61 296.183C-166.435 295.672 -164.663 294.949 -162.284 294.104C-157.526 292.415 -150.339 290.24 -140.641 288.308C-121.247 284.445 -91.8091 281.551 -51.682 285.457C28.5722 293.269 151.6 328.281 322.559 437.151C493.617 546.085 616.794 581.167 697.239 588.997C737.462 592.913 766.999 590.014 786.491 586.131C796.237 584.19 803.47 582.002 808.273 580.297C810.674 579.445 812.467 578.713 813.663 578.193C814.26 577.933 814.709 577.727 815.009 577.584C815.071 577.554 815.127 577.527 815.177 577.503C815.221 577.482 815.26 577.463 815.294 577.446L815.348 577.42L815.394 577.397L815.434 577.376L815.456 577.365L815.462 577.362C815.463 577.362 815.464 577.361 815.449 577.332C815.428 577.289 815.373 577.182 815.236 576.916L815.098 576.65C815.006 576.472 815.006 576.472 815.006 576.472L815.001 576.475L814.983 576.484C814.965 576.493 814.939 576.506 814.903 576.524C814.832 576.559 814.724 576.612 814.579 576.681C814.289 576.819 813.851 577.021 813.264 577.276C812.089 577.787 810.317 578.51 807.938 579.355C803.18 581.044 795.993 583.219 786.295 585.151C766.901 589.014 737.463 591.908 697.336 588.002C617.082 580.19 494.054 545.178 323.096 436.308C152.037 327.374 28.8607 292.292 -51.5851 284.462C-91.8081 280.546 -121.344 283.444 -140.837 287.328C-150.582 289.269 -157.816 291.457 -162.619 293.162C-165.02 294.014 -166.813 294.746 -168.009 295.266C-168.606 295.525 -169.054 295.732 -169.354 295.875C-169.504 295.946 -169.617 296.001 -169.693 296.039L-169.762 296.073L-169.78 296.082L-169.802 296.094L-169.808 296.097C-169.81 296.098 -169.811 296.098 -169.582 296.543ZM-171.599 304.029C-171.6 304.03 -171.6 304.03 -171.829 303.585C-172.059 303.141 -172.058 303.14 -172.056 303.14L-172.05 303.137L-172.028 303.125C-172.008 303.115 -171.979 303.101 -171.941 303.082C-171.865 303.044 -171.752 302.989 -171.602 302.918C-171.302 302.775 -170.854 302.568 -170.256 302.308C-169.061 301.788 -167.268 301.057 -164.866 300.204C-160.064 298.5 -152.83 296.312 -143.084 294.37C-123.592 290.487 -94.0559 287.589 -53.8329 291.504C26.6129 299.335 149.79 334.416 320.848 443.35C491.807 552.221 614.834 587.233 695.089 595.045C735.216 598.951 764.653 596.057 784.048 592.193C793.745 590.261 800.932 588.087 805.691 586.398C808.07 585.553 809.842 584.83 811.016 584.319C811.357 584.171 811.648 584.04 811.888 583.93C812.062 583.85 812.21 583.781 812.332 583.723L812.436 583.673L812.505 583.64C812.567 583.61 812.617 583.586 812.656 583.566C812.691 583.549 812.718 583.536 812.735 583.527L812.754 583.517L812.758 583.515C812.758 583.515 812.759 583.515 812.851 583.693L812.988 583.959C813.122 584.218 813.177 584.326 813.2 584.371C813.216 584.404 813.215 584.404 813.215 584.405L813.209 584.408L813.186 584.419C813.167 584.429 813.138 584.444 813.1 584.462C813.033 584.496 812.938 584.542 812.814 584.601L812.761 584.627C812.461 584.769 812.013 584.976 811.415 585.236C810.22 585.756 808.426 586.488 806.025 587.34C801.223 589.045 793.989 591.232 784.243 593.174C764.751 597.057 735.215 599.955 694.992 596.04C614.546 588.21 491.369 553.128 320.311 444.194C149.352 335.323 26.3245 300.311 -53.9298 292.5C-94.0569 288.594 -123.495 291.487 -142.889 295.351C-152.586 297.283 -159.774 299.458 -164.532 301.147C-166.911 301.991 -168.683 302.715 -169.857 303.225C-170.445 303.481 -170.883 303.683 -171.173 303.821C-171.318 303.89 -171.426 303.943 -171.497 303.978L-171.53 303.995L-171.576 304.017L-171.595 304.027L-171.599 304.029ZM-173.847 311.072C-173.848 311.072 -173.848 311.072 -174.077 310.628C-174.307 310.184 -174.306 310.183 -174.304 310.182L-174.298 310.179L-174.275 310.168C-174.256 310.158 -174.227 310.144 -174.189 310.125C-174.113 310.087 -174 310.032 -173.85 309.961C-173.55 309.818 -173.102 309.611 -172.504 309.351C-171.309 308.831 -169.516 308.1 -167.114 307.247C-162.312 305.542 -155.078 303.355 -145.332 301.413C-125.84 297.53 -96.3038 294.632 -56.0809 298.547C24.365 306.378 147.542 341.459 318.6 450.393C489.559 559.264 612.586 594.276 692.841 602.088C732.968 605.993 762.405 603.1 781.8 599.236C791.497 597.304 798.685 595.129 803.443 593.44C805.822 592.596 807.594 591.873 808.768 591.362C809.356 591.106 809.794 590.904 810.084 590.766C810.154 590.733 810.216 590.703 810.269 590.677C810.325 590.65 810.371 590.627 810.408 590.609C810.443 590.592 810.47 590.578 810.487 590.57L810.506 590.56L810.51 590.558C810.51 590.558 810.51 590.558 810.532 590.599L810.603 590.736L810.74 591.002C810.83 591.175 810.884 591.281 810.917 591.346C810.969 591.447 810.968 591.447 810.967 591.447L810.961 591.451L810.938 591.462C810.919 591.472 810.89 591.486 810.852 591.505C810.776 591.543 810.663 591.598 810.513 591.669C810.25 591.794 809.873 591.969 809.382 592.185C809.313 592.215 809.241 592.247 809.167 592.279C807.972 592.799 806.178 593.53 803.777 594.383C798.975 596.088 791.741 598.275 781.995 600.217C762.503 604.1 732.967 606.998 692.744 603.083C612.298 595.252 489.121 560.171 318.063 451.237C147.104 342.366 24.0765 307.354 -56.1778 299.542C-96.3049 295.637 -125.743 298.53 -145.137 302.394C-154.834 304.326 -162.022 306.5 -166.78 308.19C-169.159 309.034 -170.931 309.757 -172.105 310.268C-172.693 310.524 -173.131 310.726 -173.421 310.864C-173.566 310.933 -173.674 310.985 -173.745 311.021C-173.781 311.038 -173.807 311.052 -173.824 311.06L-173.843 311.07L-173.847 311.072Z" fill="url(#paint0_radial_2006_2721)"/>
<defs>
<radialGradient id="paint0_radial_2006_2721" cx="0" cy="0" r="1" gradientUnits="userSpaceOnUse" gradientTransform="translate(325.474 249.5) rotate(50.2785) scale(444.63 466.29)">
<stop stop-color="#10B981" stop-opacity="0.46"/>
<stop offset="0.406987" stop-color="#D8E3D6" stop-opacity="0.28"/>
<stop offset="1" stop-color="#6C9820" stop-opacity="0.05"/>
</radialGradient>
</defs>
</svg>
