<svg width="163" height="115" viewBox="0 0 163 115" fill="none" xmlns="http://www.w3.org/2000/svg">
<path d="M30.3385 84.4775L34.4043 96.0297L38.412 84.4775H41.4904L35.8177 99.4683H33.0103L27.2988 84.4775H30.3772H30.3385Z" fill="#262626"/>
<path d="M53.5332 96.9183V99.4683H43.0977V84.4775H53.3396V87.0275H46.0212V90.64H52.3328V92.9968H46.0212V96.899H53.5332V96.9183Z" fill="#262626"/>
<path d="M55.8172 99.4683V84.4775H62.4774C63.155 84.4775 63.7939 84.6128 64.3748 84.9025C64.9556 85.1923 65.459 85.5593 65.9043 86.0423C66.3302 86.5252 66.6594 87.0468 66.8917 87.6457C67.124 88.2446 67.2402 88.8434 67.2402 89.4616C67.2402 90.0798 67.124 90.6979 66.911 91.2775C66.6981 91.857 66.3689 92.3593 65.9624 92.8036C65.5558 93.2479 65.0718 93.5956 64.5296 93.8275L67.9565 99.4683H64.7426L61.6449 94.4456H58.7214V99.4683H55.7979H55.8172ZM58.7407 91.8957H62.3999C62.7678 91.8957 63.0969 91.7797 63.368 91.5672C63.6584 91.3547 63.8714 91.065 64.0456 90.6979C64.2199 90.3309 64.2973 89.9252 64.2973 89.4809C64.2973 89.0366 64.2005 88.5923 64.0069 88.2252C63.8133 87.8582 63.5616 87.5684 63.2712 87.3559C62.9808 87.1434 62.6516 87.0468 62.3031 87.0468H58.7407V91.8957Z" fill="#262626"/>
<path d="M81.1224 87.0275H76.3403V99.4683H73.4361V87.0275H68.6152V84.4775H81.1224V87.0275Z" fill="#262626"/>
<path d="M87.0851 84.4775H90.0473L95.5652 99.4683H92.5642L91.3251 95.7399H85.8073L84.5488 99.4683H81.5479L87.0851 84.4775ZM90.6281 93.6922L88.5565 87.5105L86.4849 93.6922H90.6281Z" fill="#262626"/>
<path d="M97.2305 99.4683V84.4775H100.154V96.9183H107.821V99.4683H97.2305Z" fill="#262626"/>
<path d="M120.019 96.9183V99.4683H109.583V84.4775H119.825V87.0275H112.507V90.64H118.818V92.9968H112.507V96.899H120.019V96.9183Z" fill="#262626"/>
<path d="M123.871 84.4775L127.569 90.0411L131.286 84.4775H134.461L129.253 92.0888L134.287 99.4876H131.112L127.55 94.1365L124.007 99.4876H120.812L125.846 92.0888L120.638 84.4775H123.832H123.871Z" fill="#262626"/>
<path d="M50.7451 15.7056L93.0488 57.9154L114.791 36.0281H133.707L93.5135 76.5959L50.7451 34.3281" fill="#262626"/>
<path d="M48.4414 14.3533H28.79V33.6906H48.4414V14.3533Z" fill="#262626"/>
<path d="M113.397 15.7056V34.3281L93.5135 54.2256L84.2783 45.1462L113.397 15.7056Z" fill="#64CE5B"/>
<path d="M135.585 14.3533H115.934V33.6906H135.585V14.3533Z" fill="#262626"/>
<path d="M48.4418 36.0281H29.7197L71.3264 76.5959L80.581 67.1494L48.4418 36.0281Z" fill="#64CE5B"/>
</svg>
