<svg width="300" height="50" viewBox="0 0 300 50" fill="none" xmlns="http://www.w3.org/2000/svg">
  <!-- First SVG -->
  <g transform="scale(1.7)">
    <path d="M10.6592 1.5271L30.7148 21.5291L41.0302 11.1592H49.9895L30.9613 30.3825L10.6592 10.3395" fill="#262626"/>
    <path d="M9.59085 0.871338H0.261719V10.0526H9.59085V0.871338Z" fill="#262626"/>
    <path d="M40.3732 1.5271V10.3395L30.9619 19.7666L26.5645 15.4629L40.3732 1.5271Z" fill="#64CE5B"/>
    <path d="M50.8936 0.871338H41.5645V10.0526H50.8936V0.871338Z" fill="#262626"/>
    <path d="M9.54992 11.1592H0.672852L20.4408 30.3824L24.7971 25.9148L9.54992 11.1592Z" fill="#64CE5B"/>
  </g>
  <!-- Second SVG -->
  <g transform="translate(90, 10)">
    <path d="M6.82649 0.0351562L14.7583 22.6194L22.5668 0.0351562H28.5671L17.4707 29.3414H11.9637L0.785156 0.0351562H6.78539H6.82649Z" fill="#262626"/>
    <path d="M52.1979 24.3409V29.3414H31.7725V0.0351562H51.828V5.03565H37.485V12.0855H49.8143V16.7172H37.485V24.3409H52.1979Z" fill="#262626"/>
    <path d="M56.6778 29.3414V0.0351562H69.7057C71.0208 0.0351562 72.2538 0.32207 73.4045 0.854911C74.5552 1.38775 75.5416 2.16652 76.4046 3.06825C77.2266 4.01096 77.8841 5.03565 78.3362 6.22429C78.7883 7.41294 79.0349 8.5606 79.0349 9.79023C79.0349 11.0199 78.8294 12.2085 78.3773 13.3562C77.9663 14.5038 77.3499 15.4875 76.5279 16.3483C75.7471 17.209 74.8018 17.8648 73.6922 18.3567L80.3911 29.3824H74.1032L68.0618 19.5453H62.3493V29.3824H56.6367L56.6778 29.3414ZM62.3904 14.5038H69.5413C70.24 14.5038 70.8976 14.2989 71.4318 13.848C71.9661 13.4381 72.4182 12.8643 72.7469 12.1265C73.0757 11.4297 73.2401 10.61 73.2401 9.74924C73.2401 8.8885 73.0346 8.02776 72.6648 7.33097C72.2949 6.63418 71.8017 6.06035 71.2263 5.65047C70.651 5.24059 69.9934 5.03565 69.3358 5.03565H62.3904V14.5448V14.5038Z" fill="#262626"/>
    <path d="M106.118 5.03565H96.7479V29.3414H91.0765V5.03565H81.624V0.0351562H106.077V5.03565H106.118Z" fill="#262626"/>
    <path d="M117.79 0.0351562H123.585L134.394 29.3414H128.517L126.092 22.0456H115.283L112.817 29.3414H106.94L117.79 0.0351562ZM124.736 18.0288L120.708 5.93739L116.639 18.0288H124.736Z" fill="#262626"/>
    <path d="M137.64 29.3414V0.0351562H143.352V24.3409H158.353V29.3414H137.64Z" fill="#262626"/>
    <path d="M182.231 24.3409V29.3414H161.806V0.0351562H181.861V5.03565H167.518V12.0855H179.847V16.7172H167.518V24.3409H182.231Z" fill="#262626"/>
    <path d="M189.752 0.0351562L196.985 10.8969L204.259 0.0351562H210.465L200.273 14.9137L210.136 29.3824H203.93L196.985 18.9305L190.08 29.3824H183.834L193.697 14.9137L183.505 0.0351562H189.752Z" fill="#262626"/>
  </g>
</svg>
