<svg width="184" height="184" viewBox="0 0 184 184" fill="none" xmlns="http://www.w3.org/2000/svg">
<path fill-rule="evenodd" clip-rule="evenodd" d="M173.026 91.592L90.9674 120.193L8.9375 91.592L90.9674 62.7638L173.026 91.592Z" fill="#64CE5B"/>
<path fill-rule="evenodd" clip-rule="evenodd" d="M90.7411 61.9126L7.03711 91.7055L90.9681 121.016L175.154 91.7055L90.9681 61.9126H90.7411ZM90.9681 63.5583H91.4505L91.9328 63.8137L93.1245 64.0407L94.3162 64.75L96.2173 65.4594L98.1184 65.9417L103.339 67.8428L108.815 69.7439L115.483 72.1273L122.605 74.5108L129.756 77.1212L136.878 79.7316L144 82.115L150.894 84.4985L156.825 86.6549L162.046 88.556L164.429 89.4923L166.33 90.2017L168.004 90.6841L169.196 91.1664L170.161 91.3934L170.615 91.6488L170.161 92.1028L169.196 92.3581L168.004 92.5851L166.33 93.2945L164.429 94.0038L162.046 94.9686L156.825 96.4157L150.894 98.7991L144 100.956L136.878 103.566L129.756 105.949L122.605 108.56L115.483 111.227L108.815 113.383L103.339 115.285L98.1184 116.959L96.2173 117.923L94.3162 118.179L93.1245 118.888L91.9328 119.143L91.4505 119.37H90.9681H90.7411L90.2587 119.143L89.067 118.888L87.8753 118.179L85.9742 117.923L83.8178 116.959L78.8239 115.285L73.1207 113.383L66.7365 111.227L59.5862 108.617L52.4643 106.006L45.3423 103.623L38.192 101.012L31.2971 98.8558L25.3385 96.4724L20.1176 95.0253L17.9612 94.0606L15.8047 93.3512L14.1307 92.6419L12.9389 92.4149L12.0026 92.1595L11.2932 91.7055L12.0026 91.4502L12.9389 91.2232L14.1307 90.7408L15.8047 90.2585L17.9612 89.5491L20.1176 88.6127L25.3385 86.7117L31.2971 84.5552L38.192 82.1718L45.3423 79.7884L52.4643 77.1779L59.5862 74.5675L66.7081 72.1841L73.1207 69.8006L78.8239 67.8996L83.8178 65.9985L85.9742 65.5161L87.8753 64.8068L89.067 64.0974L90.2587 63.8704L90.7411 63.6151H90.9681V63.5583Z" fill="white"/>
<path d="M7.09358 91.2799V91.9609V91.2799L6.15723 91.6204L7.09358 91.9609H7.32057L91.0246 62.1679L90.7976 61.4869L7.09358 91.2799Z" fill="#64CE5B"/>
<path d="M90.8538 121.328L90.9673 121.357L91.0808 121.328H90.8538ZM6.92285 92.0176L90.8538 121.328H91.0808V120.647L7.14985 91.365L6.92285 92.0176Z" fill="#64CE5B"/>
<path d="M175.041 91.365L90.8545 120.676L91.1099 121.328L175.268 92.0176V91.365V92.0176L176.233 91.7055L175.268 91.365H175.041Z" fill="#64CE5B"/>
<path d="M90.968 61.5437L90.8545 62.2531L175.041 92.046L175.268 91.365L91.1099 61.5721L90.968 61.5437ZM90.968 61.5437L91.0815 61.5721L91.0247 61.5437H90.968Z" fill="#64CE5B"/>
<path fill-rule="evenodd" clip-rule="evenodd" d="M170.756 92.0177L170.785 91.3651L91.1099 63.2462L90.8545 63.8988L170.529 92.0177H170.756L171.693 91.7056L170.785 91.3651L170.756 92.0177Z" fill="#64CE5B"/>
<path fill-rule="evenodd" clip-rule="evenodd" d="M90.8828 119.682H91.1098L170.756 92.0176L170.529 91.365L90.8828 119.001V119.682L90.9679 119.711L91.1098 119.682H90.8828Z" fill="#64CE5B"/>
<path fill-rule="evenodd" clip-rule="evenodd" d="M11.2078 91.365V92.0176L90.8827 119.682L91.1097 119.001L11.4348 91.365H11.2078L10.2715 91.7055L11.2078 92.0176V91.365Z" fill="#64CE5B"/>
<path fill-rule="evenodd" clip-rule="evenodd" d="M90.8545 63.2462L11.208 91.3651L11.435 92.0177L91.1099 63.8988L90.8545 63.2462Z" fill="#64CE5B"/>
<path fill-rule="evenodd" clip-rule="evenodd" d="M89.3221 73.5743L91.4501 74.5391L92.1595 75.5038L92.8972 76.4401L92.6418 76.9225L92.1595 77.1495H91.9325H91.7055H89.0667H86.0023H85.5199L85.0375 76.9225L84.8105 76.4401L85.0375 75.9578L85.7469 75.2484L86.9386 74.0567L88.3573 73.5743H88.6127H89.0667H89.3221Z" fill="white"/>
<path fill-rule="evenodd" clip-rule="evenodd" d="M161.137 80.7247V91.4502H154.724V102.658H145.446V91.4502H139.005V80.7247H161.137Z" fill="white"/>
<path fill-rule="evenodd" clip-rule="evenodd" d="M161.619 79.7883H138.324V92.1879H138.58H139.289H141.445H143.346H144.283H144.992V93.1526V94.3443V96.2454V98.1465V100.048V101.722V102.913V103.14H155.207V102.913V101.722V100.048V98.1465V96.2454V94.3443V93.1526V92.1879H155.916H156.881H159.264H161.165H161.875H162.13V79.7883H161.619ZM160.655 81.207V81.9164V83.1081V85.9739V88.8397V89.8044V90.5138H159.945H159.236H157.08H154.952H154.469H153.987V90.7692V92.1879V93.6066V95.99V97.8911V99.7922V100.984V101.949H153.504H152.568H150.185H147.801H146.865H146.382V100.984V99.7922V97.8911V95.99V93.6066V92.1879V90.7692V90.5138H146.156H145.446H143.29H141.389H140.452H139.743V89.8044V88.8397V85.9739V83.1081V81.9164V81.207H140.197H140.906H142.098H143.29H146.609H150.185H153.76H157.08H158.271H159.463H160.428H160.655Z" fill="white"/>
<path fill-rule="evenodd" clip-rule="evenodd" d="M137.955 79.7883L138.296 80.1288H161.619V79.4194H138.296L137.955 79.7883L138.296 79.4194H137.955V79.7883Z" fill="#64CE5B"/>
<path fill-rule="evenodd" clip-rule="evenodd" d="M138.296 92.5284L138.664 92.1595V79.7883H137.955V92.1595L138.296 92.5284L137.955 92.1595V92.5284H138.296Z" fill="#64CE5B"/>
<path fill-rule="evenodd" clip-rule="evenodd" d="M145.333 92.1595L144.964 91.819H138.296V92.5283H144.964L145.333 92.1595V91.819H144.964L145.333 92.1595Z" fill="#64CE5B"/>
<path fill-rule="evenodd" clip-rule="evenodd" d="M144.964 103.481L145.332 103.14V92.1595H144.595V103.14L144.964 103.481L144.595 103.14V103.481H144.964Z" fill="#64CE5B"/>
<path fill-rule="evenodd" clip-rule="evenodd" d="M155.547 103.14L155.179 102.771H144.964V103.481H155.179L155.547 103.14L155.179 103.481H155.547V103.14Z" fill="#64CE5B"/>
<path fill-rule="evenodd" clip-rule="evenodd" d="M155.178 91.819L154.838 92.1595V103.14H155.547V92.1595L155.178 91.819H154.838V92.1595L155.178 91.819Z" fill="#64CE5B"/>
<path fill-rule="evenodd" clip-rule="evenodd" d="M162.443 92.1595L162.102 91.819H155.179V92.5283H162.102L162.443 92.1595L162.102 92.5283H162.443V92.1595Z" fill="#64CE5B"/>
<path fill-rule="evenodd" clip-rule="evenodd" d="M162.102 79.4194L161.733 79.7883V92.1595H162.443V79.7883L162.102 79.4194L162.443 79.7883V79.4194H162.102Z" fill="#64CE5B"/>
<path d="M162.101 79.4194H161.619V80.1288H162.101V79.4194Z" fill="#64CE5B"/>
<path fill-rule="evenodd" clip-rule="evenodd" d="M160.655 90.8543L161.024 90.4854V81.207H160.314V90.4854L160.655 90.8543H161.024V90.4854L160.655 90.8543Z" fill="#64CE5B"/>
<path fill-rule="evenodd" clip-rule="evenodd" d="M153.646 90.4854L154.015 90.8543H160.655V90.1449H154.015L153.646 90.4854L154.015 90.1449H153.646V90.4854Z" fill="#64CE5B"/>
<path fill-rule="evenodd" clip-rule="evenodd" d="M154.015 102.289L154.356 101.949V90.4855H153.646V101.949L154.015 102.289H154.356V101.949L154.015 102.289Z" fill="#64CE5B"/>
<path fill-rule="evenodd" clip-rule="evenodd" d="M146.042 101.949L146.382 102.289H154.015V101.58H146.382L146.042 101.949V102.289H146.382L146.042 101.949Z" fill="#64CE5B"/>
<path fill-rule="evenodd" clip-rule="evenodd" d="M146.382 90.1449L146.042 90.4854V101.949H146.751V90.4854L146.382 90.1449L146.751 90.4854V90.1449H146.382Z" fill="#64CE5B"/>
<path fill-rule="evenodd" clip-rule="evenodd" d="M139.374 90.4854L139.743 90.8543H146.382V90.1449H139.743L139.374 90.4854V90.8543H139.743L139.374 90.4854Z" fill="#64CE5B"/>
<path fill-rule="evenodd" clip-rule="evenodd" d="M139.743 80.8381L139.374 81.207V90.4854H140.083V81.207L139.743 80.8381H139.374V81.207L139.743 80.8381Z" fill="#64CE5B"/>
<path d="M161.024 80.8381H139.743V81.5475H161.024V80.8381Z" fill="#64CE5B"/>
<path fill-rule="evenodd" clip-rule="evenodd" d="M84.584 77.8589L84.811 75.9578L86.0027 74.5391L87.1944 73.3474L89.0671 73.092L90.7412 73.3474L92.1599 74.5391L93.1246 75.9578L93.38 77.8589H84.584Z" fill="white"/>
<path fill-rule="evenodd" clip-rule="evenodd" d="M83.8457 77.8589V78.3412H94.0888V77.8589L93.8334 75.9578L92.6417 74.0567L90.7406 72.638L89.0666 72.411L87.1655 72.638L85.4914 74.0567L84.2997 75.9578L83.8457 77.8589ZM89.0666 74.0567L90.2583 74.3121L91.45 75.0214L92.1594 75.9862L92.6417 77.1779H91.9324H90.9676H89.0666H86.9385H85.9738H85.4914L85.7468 75.9862L86.6831 75.0214L87.8748 74.3121L89.0666 74.0567Z" fill="white"/>
<path fill-rule="evenodd" clip-rule="evenodd" d="M83.8454 78.7101L84.2142 78.3413V77.8589H83.5049V78.3413L83.8454 78.7101L83.5049 78.3413V78.7101H83.8454Z" fill="#64CE5B"/>
<path fill-rule="evenodd" clip-rule="evenodd" d="M94.4293 78.3412L94.0888 78.0007H83.8457V78.7101H94.0888L94.4293 78.3412L94.0888 78.7101H94.4293V78.3412Z" fill="#64CE5B"/>
<path d="M94.4291 77.8589H93.7197V78.3413H94.4291V77.8589Z" fill="#64CE5B"/>
<path fill-rule="evenodd" clip-rule="evenodd" d="M94.4291 77.1495H93.7197V77.8589H94.4291L93.7197 77.1495H94.4291Z" fill="#64CE5B"/>
<path d="M84.2142 77.1495H83.5049V77.8589H84.2142V77.1495Z" fill="#64CE5B"/>
<path fill-rule="evenodd" clip-rule="evenodd" d="M85.1514 77.1496L85.5202 77.5184H92.6422V76.8091H85.5202L85.1514 77.1496V77.5184H85.5202L85.1514 77.1496Z" fill="#64CE5B"/>
<path d="M85.8891 76.9226H85.1797V77.1496H85.8891V76.9226Z" fill="#64CE5B"/>
<path fill-rule="evenodd" clip-rule="evenodd" d="M134.267 80.7247L143.772 102.658H133.331V91.4502H130.209V102.658H120.222L129.755 80.7247H134.267Z" fill="white"/>
<path fill-rule="evenodd" clip-rule="evenodd" d="M134.267 80.0154H129.5L119.03 103.14H131.174V102.913V101.722V100.048V98.1465V96.2454V94.3444V93.1526V92.1879H131.884H132.139H132.593V93.1526V94.3444V96.2454V98.1465V100.048V101.722V102.913V103.14H144.964L134.494 80.0154H134.267ZM133.558 81.6895L133.813 81.9165L134.267 82.6258L134.977 84.7823L136.622 87.875L138.069 91.4502L139.488 95.0253L140.907 98.1181L142.099 100.729L142.581 101.211L142.808 101.92H141.872H140.68H138.069H135.686H134.721H134.239V100.956V99.7638V97.8911V95.9901V93.6066V92.1879V90.7692V90.5138H129.727V90.7692V92.1879V93.6066V95.9901V97.8911V99.7922V100.984V101.949H129.018H128.309H125.925H123.059H122.35H121.385L121.641 101.239L121.868 100.757L123.059 98.1465L124.251 95.0537L125.925 91.4786L127.344 87.9034L128.763 84.8106L129.727 82.6542L129.954 81.9448L130.181 81.7178H130.891H132.082H133.019H133.558V81.6895Z" fill="white"/>
<path fill-rule="evenodd" clip-rule="evenodd" d="M129.188 79.8734L129.5 80.3842H134.266V79.6748H129.5L129.188 79.8734L129.5 79.6748H129.273L129.188 79.8734Z" fill="#64CE5B"/>
<path fill-rule="evenodd" clip-rule="evenodd" d="M119.03 103.481L119.371 103.282L129.841 80.1572L129.188 79.8734L118.718 102.97L119.03 103.481L118.718 102.97L118.491 103.481H119.03Z" fill="#64CE5B"/>
<path fill-rule="evenodd" clip-rule="evenodd" d="M131.543 103.14L131.174 102.771H119.03V103.481H131.174L131.543 103.14L131.174 103.481H131.543V103.14Z" fill="#64CE5B"/>
<path fill-rule="evenodd" clip-rule="evenodd" d="M131.175 91.819L130.806 92.1595V103.14H131.543V92.1595L131.175 91.819H130.806V92.1595L131.175 91.819Z" fill="#64CE5B"/>
<path fill-rule="evenodd" clip-rule="evenodd" d="M131.883 91.819H131.174V92.5283H131.883V91.819Z" fill="#64CE5B"/>
<path fill-rule="evenodd" clip-rule="evenodd" d="M132.962 92.1595L132.593 91.819H131.884V92.5283H132.593L132.962 92.1595V91.819H132.593L132.962 92.1595Z" fill="#64CE5B"/>
<path fill-rule="evenodd" clip-rule="evenodd" d="M132.592 103.481L132.961 103.14V92.1595H132.252V103.14L132.592 103.481L132.252 103.14V103.481H132.592Z" fill="#64CE5B"/>
<path fill-rule="evenodd" clip-rule="evenodd" d="M145.276 102.97L144.964 102.771H132.593V103.481H144.964L145.276 102.97L144.964 103.481H145.503L145.276 102.97Z" fill="#64CE5B"/>
<path fill-rule="evenodd" clip-rule="evenodd" d="M134.494 79.6748L134.182 80.1572L144.652 103.282L145.276 102.97L134.834 79.8734L134.494 79.6748L134.834 79.8734L134.721 79.6748H134.494Z" fill="#64CE5B"/>
<path d="M134.522 79.6748H134.267V80.3842H134.522V79.6748Z" fill="#64CE5B"/>
<path fill-rule="evenodd" clip-rule="evenodd" d="M142.836 102.289L143.148 101.778L133.869 81.5476L133.245 81.8313L142.495 102.091L142.836 102.289H143.375L143.148 101.778L142.836 102.289Z" fill="#64CE5B"/>
<path fill-rule="evenodd" clip-rule="evenodd" d="M133.898 101.949L134.267 102.289H142.836V101.58H134.267L133.898 101.949V102.289H134.267L133.898 101.949Z" fill="#64CE5B"/>
<path fill-rule="evenodd" clip-rule="evenodd" d="M134.267 90.1449L133.898 90.4854V101.949H134.636V90.4854L134.267 90.1449L134.636 90.4854V90.1449H134.267Z" fill="#64CE5B"/>
<path fill-rule="evenodd" clip-rule="evenodd" d="M129.387 90.4854L129.756 90.8543H134.267V90.1449H129.756L129.387 90.4854L129.756 90.1449H129.387V90.4854Z" fill="#64CE5B"/>
<path fill-rule="evenodd" clip-rule="evenodd" d="M129.756 102.289L130.096 101.949V90.4855H129.387V101.949L129.756 102.289H130.096V101.949L129.756 102.289Z" fill="#64CE5B"/>
<path fill-rule="evenodd" clip-rule="evenodd" d="M121.101 101.807L121.413 102.289H129.755V101.58H121.413L121.101 101.807L120.874 102.289H121.413L121.101 101.807Z" fill="#64CE5B"/>
<path fill-rule="evenodd" clip-rule="evenodd" d="M130.21 81.3206L129.898 81.5475L121.102 101.807L121.754 102.09L130.55 81.8313L130.21 81.3206H129.983L129.898 81.5475L130.21 81.3206Z" fill="#64CE5B"/>
<path d="M133.727 81.3206H130.209V82.0299H133.727V81.3206Z" fill="#64CE5B"/>
<path fill-rule="evenodd" clip-rule="evenodd" d="M127.258 91.7623L126.776 94.1457L126.322 96.2738L125.357 97.9479L124.165 99.8489L122.52 101.041L120.845 102.005L118.944 102.715L116.788 102.97L114.66 102.715L112.532 102.005L110.858 101.041L109.439 99.8489L107.765 97.9479L107.056 96.2738L106.318 94.1457L106.091 91.7623L106.318 89.6058L107.056 87.4778L107.765 85.5767L109.439 83.9026L110.858 82.7109L112.532 81.7462L114.66 81.0368L116.788 80.8098L118.944 81.0368L120.845 81.7462L122.52 82.7109L124.165 83.9026L125.357 85.5767L126.322 87.4778L126.776 89.6058L127.258 91.7623Z" fill="white"/>
<path fill-rule="evenodd" clip-rule="evenodd" d="M127.457 93.2661L127.486 93.1243V91.7056H126.776V93.1243L127.457 93.2661L127.486 93.2094V93.1243L127.457 93.2661Z" fill="#64CE5B"/>
<path fill-rule="evenodd" clip-rule="evenodd" d="M126.322 94.0038L126.975 94.2308L127.457 93.2661L126.805 92.954L126.322 93.9187V94.0038V93.9187V93.9471V94.0038Z" fill="#64CE5B"/>
<path fill-rule="evenodd" clip-rule="evenodd" d="M126.066 94.9685L126.747 95.1104L127.003 94.1457L126.322 94.0038L126.066 94.9401V94.9685V94.9401V94.9685Z" fill="#64CE5B"/>
<path fill-rule="evenodd" clip-rule="evenodd" d="M126.521 96.3021L126.776 95.082L126.067 94.9685L125.84 96.1602L126.521 96.3021Z" fill="#64CE5B"/>
<path fill-rule="evenodd" clip-rule="evenodd" d="M126.237 97.3803L126.293 97.2668L126.52 96.3021L125.839 96.1318L125.612 97.0966L126.237 97.3803L126.265 97.3236L126.293 97.2668L126.237 97.3803Z" fill="#64CE5B"/>
<path fill-rule="evenodd" clip-rule="evenodd" d="M124.932 97.9194L125.528 98.345L126.237 97.3803L125.641 96.9547L124.932 97.9194Z" fill="#64CE5B"/>
<path fill-rule="evenodd" clip-rule="evenodd" d="M125.045 99.0544L125.527 98.3167L124.932 97.9194L124.449 98.6572L125.045 99.0544Z" fill="#64CE5B"/>
<path fill-rule="evenodd" clip-rule="evenodd" d="M124.194 100.104L124.336 100.019L125.045 99.0544L124.478 98.6288L123.74 99.5935L124.194 100.104L124.279 100.076L124.336 100.019L124.194 100.104Z" fill="#64CE5B"/>
<path fill-rule="evenodd" clip-rule="evenodd" d="M122.832 100.019L123.258 100.587L124.194 100.104L123.882 99.4801L122.917 99.9625L122.832 100.019L122.917 99.9625H122.86L122.832 100.019Z" fill="#64CE5B"/>
<path fill-rule="evenodd" clip-rule="evenodd" d="M122.577 101.268L122.634 101.239L123.343 100.53L122.832 100.019L122.123 100.729L122.577 101.268H122.605L122.634 101.239L122.577 101.268Z" fill="#64CE5B"/>
<path fill-rule="evenodd" clip-rule="evenodd" d="M121.527 102.034L121.64 101.977L122.577 101.268L122.151 100.7L121.215 101.41L121.527 102.034H121.584L121.64 101.977L121.527 102.034Z" fill="#64CE5B"/>
<path fill-rule="evenodd" clip-rule="evenodd" d="M120.25 101.665L120.562 102.289L121.527 102.034L121.328 101.353L120.392 101.58L120.25 101.665L120.392 101.58L120.307 101.608L120.25 101.665Z" fill="#64CE5B"/>
<path fill-rule="evenodd" clip-rule="evenodd" d="M119.512 102.999L119.739 102.942L120.675 102.232L120.25 101.665L119.313 102.374L119.512 102.999H119.626L119.739 102.942L119.512 102.999Z" fill="#64CE5B"/>
<path fill-rule="evenodd" clip-rule="evenodd" d="M118.746 102.289L118.803 102.998H119.512V102.289H118.803H118.746H118.803H118.774H118.746Z" fill="#64CE5B"/>
<path fill-rule="evenodd" clip-rule="evenodd" d="M117.611 103.254H117.697L118.888 102.998L118.746 102.289L117.555 102.544L117.611 103.254H117.64H117.697H117.611Z" fill="#64CE5B"/>
<path fill-rule="evenodd" clip-rule="evenodd" d="M116.675 103.254H117.64V102.544H116.675V103.254Z" fill="#64CE5B"/>
<path fill-rule="evenodd" clip-rule="evenodd" d="M115.398 103.254H115.484H116.675V102.544H115.484L115.398 103.254H115.455H115.484H115.398Z" fill="#64CE5B"/>
<path fill-rule="evenodd" clip-rule="evenodd" d="M114.291 102.289L114.234 102.998L115.398 103.254L115.54 102.544L114.348 102.289H114.291H114.348H114.319H114.291Z" fill="#64CE5B"/>
<path fill-rule="evenodd" clip-rule="evenodd" d="M113.128 102.942L113.355 102.998H114.291V102.289H113.355L113.128 102.942L113.213 102.998H113.355L113.128 102.942Z" fill="#64CE5B"/>
<path fill-rule="evenodd" clip-rule="evenodd" d="M112.504 101.608L112.163 102.232L113.128 102.942L113.553 102.374L112.589 101.665L112.504 101.608L112.589 101.665L112.56 101.608H112.504Z" fill="#64CE5B"/>
<path fill-rule="evenodd" clip-rule="evenodd" d="M111.454 101.977L111.568 102.034L112.277 102.289L112.504 101.608L111.795 101.353L111.454 101.977L111.511 102.034H111.568L111.454 101.977Z" fill="#64CE5B"/>
<path fill-rule="evenodd" clip-rule="evenodd" d="M110.943 100.7L110.518 101.268L111.454 101.977L111.88 101.41L110.943 100.7L110.518 101.268L110.943 100.7Z" fill="#64CE5B"/>
<path fill-rule="evenodd" clip-rule="evenodd" d="M109.524 100.53L109.553 100.558L110.518 101.268L110.943 100.7L109.978 99.9908L109.524 100.53L109.553 100.558L109.524 100.53Z" fill="#64CE5B"/>
<path fill-rule="evenodd" clip-rule="evenodd" d="M109.553 99.5367L109.042 100.047L109.524 100.53L110.007 100.019L109.553 99.5367L109.042 100.047L109.553 99.5367Z" fill="#64CE5B"/>
<path fill-rule="evenodd" clip-rule="evenodd" d="M108.588 98.5721L108.077 99.0829L109.042 100.048L109.553 99.5369L108.588 98.5721L108.077 99.0829L108.588 98.5721Z" fill="#64CE5B"/>
<path fill-rule="evenodd" clip-rule="evenodd" d="M107.283 98.2033L107.368 98.3735L108.078 99.0829L108.588 98.5721L107.879 97.8628L107.283 98.2033L107.312 98.3168L107.368 98.3735L107.283 98.2033Z" fill="#64CE5B"/>
<path fill-rule="evenodd" clip-rule="evenodd" d="M107.708 97.0115L107.056 97.2668L107.283 98.2032L107.964 98.0329L107.737 97.0966L107.708 97.0115L107.737 97.0966V97.0399L107.708 97.0115Z" fill="#64CE5B"/>
<path fill-rule="evenodd" clip-rule="evenodd" d="M106.602 96.3589V96.3872L107.056 97.3236L107.708 97.0115L107.226 96.0468L106.602 96.3589V96.3872V96.3589Z" fill="#64CE5B"/>
<path fill-rule="evenodd" clip-rule="evenodd" d="M106.091 95.1105L106.119 95.1672L106.602 96.359L107.254 96.1036L106.772 94.9119L106.091 95.1105V95.1389L106.119 95.1672L106.091 95.1105Z" fill="#64CE5B"/>
<path fill-rule="evenodd" clip-rule="evenodd" d="M106.545 94.0038L105.864 94.1457L106.091 95.1104L106.772 94.9401L106.545 94.0038L105.864 94.1457L106.545 94.0038Z" fill="#64CE5B"/>
<path fill-rule="evenodd" clip-rule="evenodd" d="M105.609 93.1242V93.2093L105.865 94.1457L106.546 94.0038L106.319 93.0391L105.609 93.1242V93.1526V93.2093V93.1242Z" fill="#64CE5B"/>
<path fill-rule="evenodd" clip-rule="evenodd" d="M106.319 91.7056H105.609V93.1243H106.319L105.609 91.7056H106.319Z" fill="#64CE5B"/>
<path fill-rule="evenodd" clip-rule="evenodd" d="M105.609 90.4003V90.4854V91.7055H106.319V90.4854L105.609 90.4003V90.457V90.4854V90.4003Z" fill="#64CE5B"/>
<path fill-rule="evenodd" clip-rule="evenodd" d="M106.546 89.6059L105.865 89.464L105.609 90.4003L106.319 90.5706L106.546 89.6342V89.6059V89.6342V89.6059Z" fill="#64CE5B"/>
<path fill-rule="evenodd" clip-rule="evenodd" d="M106.12 88.1871L106.091 88.3006L105.864 89.4924L106.545 89.6058L106.801 88.4425L106.12 88.1871L106.091 88.2439V88.3006L106.12 88.1871Z" fill="#64CE5B"/>
<path fill-rule="evenodd" clip-rule="evenodd" d="M107.227 87.5629L106.602 87.2507L106.12 88.1871L106.773 88.5276L107.227 87.5629L106.602 87.2507L107.227 87.5629Z" fill="#64CE5B"/>
<path fill-rule="evenodd" clip-rule="evenodd" d="M107.737 86.5414L107.056 86.286L106.602 87.2507L107.226 87.5629L107.708 86.6265L107.737 86.5414L107.708 86.6265L107.737 86.5698V86.5414Z" fill="#64CE5B"/>
<path fill-rule="evenodd" clip-rule="evenodd" d="M107.339 85.293L107.283 85.4065L107.056 86.3712L107.737 86.5414L107.964 85.5767L107.339 85.293L107.311 85.3497L107.283 85.4065L107.339 85.293Z" fill="#64CE5B"/>
<path fill-rule="evenodd" clip-rule="evenodd" d="M108.134 84.2715L108.049 84.3282L107.34 85.293L107.907 85.7186L108.617 84.7538L108.134 84.2715L108.078 84.2999L108.049 84.3282L108.134 84.2715Z" fill="#64CE5B"/>
<path fill-rule="evenodd" clip-rule="evenodd" d="M109.609 84.0161L109.099 83.5337L108.134 84.2714L108.559 84.8389L109.524 84.1012L109.609 84.0161L109.524 84.1012L109.553 84.0728L109.609 84.0161Z" fill="#64CE5B"/>
<path fill-rule="evenodd" clip-rule="evenodd" d="M109.61 82.796L109.468 82.9095L109.014 83.6189L109.61 84.0161L110.064 83.3068L109.61 82.796L109.524 82.8244L109.468 82.9095L109.61 82.796Z" fill="#64CE5B"/>
<path fill-rule="evenodd" clip-rule="evenodd" d="M110.943 82.9095L110.574 82.3136L109.609 82.796L109.921 83.4202L110.886 82.9662L110.943 82.9095L110.886 82.9662L110.915 82.9378L110.943 82.9095Z" fill="#64CE5B"/>
<path fill-rule="evenodd" clip-rule="evenodd" d="M111.936 82.1718L111.454 81.6327L110.518 82.3704L110.943 82.9095L111.88 82.2002L111.936 82.1718L111.88 82.2002H111.908L111.936 82.1718Z" fill="#64CE5B"/>
<path fill-rule="evenodd" clip-rule="evenodd" d="M112.305 80.8666L112.135 80.9517L111.426 81.6611L111.937 82.1718L112.646 81.4624L112.305 80.8666L112.22 80.895L112.135 80.9517L112.305 80.8666Z" fill="#64CE5B"/>
<path fill-rule="evenodd" clip-rule="evenodd" d="M113.441 81.3205L113.242 80.6395L112.306 80.8665L112.476 81.5475L113.441 81.3205L113.242 80.6395L113.441 81.3205Z" fill="#64CE5B"/>
<path fill-rule="evenodd" clip-rule="evenodd" d="M114.291 80.3842H114.206L113.241 80.6395L113.44 81.3205L114.376 81.0651L114.291 80.3842H114.234H114.206H114.291Z" fill="#64CE5B"/>
<path fill-rule="evenodd" clip-rule="evenodd" d="M115.483 80.3842H114.291V81.0935H115.483V80.3842Z" fill="#64CE5B"/>
<path fill-rule="evenodd" clip-rule="evenodd" d="M116.675 80.3842H115.483V81.0935H116.675V80.3842Z" fill="#64CE5B"/>
<path fill-rule="evenodd" clip-rule="evenodd" d="M117.611 80.3842H116.646V81.0935H117.611V80.3842Z" fill="#64CE5B"/>
<path fill-rule="evenodd" clip-rule="evenodd" d="M118.917 80.3842H118.803H117.611V81.0935H118.803L118.917 80.3842H118.86H118.803H118.917Z" fill="#64CE5B"/>
<path fill-rule="evenodd" clip-rule="evenodd" d="M119.427 81.3205L119.626 80.6395L118.916 80.3842L118.689 81.0651L119.399 81.3205H119.427H119.399H119.427Z" fill="#64CE5B"/>
<path fill-rule="evenodd" clip-rule="evenodd" d="M120.675 80.9233L120.562 80.8665L119.597 80.6395L119.427 81.3205L120.391 81.5475L120.675 80.9233L120.618 80.8949L120.562 80.8665L120.675 80.9233Z" fill="#64CE5B"/>
<path fill-rule="evenodd" clip-rule="evenodd" d="M121.215 82.2002L121.64 81.6327L120.676 80.9233L120.25 81.4908L121.215 82.2002L121.64 81.6327L121.215 82.2002Z" fill="#64CE5B"/>
<path fill-rule="evenodd" clip-rule="evenodd" d="M122.18 82.9379L122.577 82.3704L121.64 81.6327L121.215 82.2002L122.151 82.9095L122.18 82.9379L122.151 82.9095L122.18 82.9379Z" fill="#64CE5B"/>
<path fill-rule="evenodd" clip-rule="evenodd" d="M123.286 82.8244L122.577 82.342L122.18 82.9379L122.889 83.4203L123.286 82.8244Z" fill="#64CE5B"/>
<path fill-rule="evenodd" clip-rule="evenodd" d="M124.307 83.5904L124.251 83.5337L123.286 82.8243L122.86 83.3918L123.825 84.1012L124.307 83.5904L124.279 83.5621L124.251 83.5337L124.307 83.5904Z" fill="#64CE5B"/>
<path fill-rule="evenodd" clip-rule="evenodd" d="M125.074 84.3849L125.017 84.2998L124.308 83.5905L123.797 84.0728L124.506 84.8105L125.074 84.3849L125.045 84.3282L125.017 84.2998L125.074 84.3849Z" fill="#64CE5B"/>
<path fill-rule="evenodd" clip-rule="evenodd" d="M124.932 85.7186L125.556 85.3497L125.074 84.385L124.421 84.6971L124.903 85.6619L124.932 85.7186L124.903 85.6619L124.932 85.6902V85.7186Z" fill="#64CE5B"/>
<path fill-rule="evenodd" clip-rule="evenodd" d="M126.294 86.3712L126.237 86.2293L125.528 85.293L124.932 85.7186L125.641 86.6549L126.294 86.3712L126.265 86.2861L126.237 86.2293L126.294 86.3712Z" fill="#64CE5B"/>
<path fill-rule="evenodd" clip-rule="evenodd" d="M125.839 87.4778L126.52 87.3076L126.293 86.3712L125.612 86.5415L125.839 87.4778L126.52 87.3076L125.839 87.4778Z" fill="#64CE5B"/>
<path fill-rule="evenodd" clip-rule="evenodd" d="M126.776 88.3006L126.748 88.2722L126.521 87.3075L125.84 87.4777L126.067 88.4425L126.776 88.3006V88.2722H126.748L126.776 88.3006Z" fill="#64CE5B"/>
<path fill-rule="evenodd" clip-rule="evenodd" d="M126.322 89.691L127.003 89.4924L126.776 88.3007L126.066 88.4425L126.293 89.6059L126.322 89.691L126.293 89.6059L126.322 89.6626V89.691Z" fill="#64CE5B"/>
<path fill-rule="evenodd" clip-rule="evenodd" d="M127.486 90.4854L127.457 90.3436L126.975 89.4072L126.322 89.691L126.805 90.6557L127.486 90.4854V90.4003L127.457 90.3436L127.486 90.4854Z" fill="#64CE5B"/>
<path d="M127.486 90.4855H126.776V91.6772H127.486V90.4855Z" fill="#64CE5B"/>
<path fill-rule="evenodd" clip-rule="evenodd" d="M105.269 91.7055L105.751 94.3159L106.205 96.4723L107.397 98.3734L108.588 100.274L110.489 101.949L112.163 102.913L114.292 103.623L116.675 103.878L118.831 103.623L120.733 102.913L122.889 101.949L124.308 100.274L125.982 98.3734L126.691 96.4723L127.4 94.3159L127.627 91.7055L127.4 89.322L126.691 86.9386L125.982 85.0375L124.308 83.1364L122.889 81.9447L120.733 80.753L118.831 80.0436L116.675 79.8167L114.292 80.0436L112.163 80.753L110.489 81.9447L108.588 83.1364L107.397 85.0375L106.205 86.9386L105.751 89.322L105.269 91.7055ZM106.914 91.7055L107.141 89.549L107.624 87.6479L108.333 85.9739L109.525 84.5268L110.943 83.1081L112.844 82.1433L114.519 81.6893L116.647 81.207L118.803 81.6893L120.477 82.1433L121.896 83.1081L123.57 84.5268L124.762 85.9739L125.471 87.6479L126.18 89.549L126.407 91.7055L126.18 94.0889L125.471 95.99L124.762 97.4087L123.57 99.0828L121.896 100.274L120.477 101.239L118.803 101.949L116.647 102.176L114.519 101.949L112.844 101.239L110.943 100.274L109.525 99.0828L108.333 97.4087L107.624 95.99L107.141 94.0889L106.914 91.7055Z" fill="white"/>
<path fill-rule="evenodd" clip-rule="evenodd" d="M104.928 93.2661L105.609 93.1243V91.7056H104.899V93.1243L104.928 93.2661L104.899 93.1243V93.2094L104.928 93.2661Z" fill="#64CE5B"/>
<path fill-rule="evenodd" clip-rule="evenodd" d="M106.091 94.0038L106.063 93.9187L105.58 92.954L104.928 93.2661L105.41 94.2308L106.091 94.0038L106.063 93.9471V93.9187L106.091 94.0038Z" fill="#64CE5B"/>
<path fill-rule="evenodd" clip-rule="evenodd" d="M105.609 95.3374L106.318 95.1955L106.091 94.0038L105.382 94.1457L105.609 95.3374L106.318 95.1955L105.609 95.3374Z" fill="#64CE5B"/>
<path fill-rule="evenodd" clip-rule="evenodd" d="M105.921 96.671L106.546 96.3873L106.319 95.1956L105.609 95.3374L105.865 96.5291L105.921 96.671L105.865 96.5291V96.6143L105.921 96.671Z" fill="#64CE5B"/>
<path fill-rule="evenodd" clip-rule="evenodd" d="M107.254 97.3236L107.198 97.1817L106.488 96.2454L105.921 96.671L106.63 97.6073L107.254 97.3236V97.2668L107.198 97.1817L107.254 97.3236Z" fill="#64CE5B"/>
<path fill-rule="evenodd" clip-rule="evenodd" d="M106.914 98.6288L107.51 98.2883L107.254 97.3236L106.573 97.4939L106.829 98.4586L106.914 98.6288L106.829 98.4586V98.5437L106.914 98.6288Z" fill="#64CE5B"/>
<path fill-rule="evenodd" clip-rule="evenodd" d="M108.418 99.1396L108.361 99.0545L107.396 98.1182L106.914 98.6289L107.85 99.5653L108.418 99.1396L108.39 99.0829L108.361 99.0545L108.418 99.1396Z" fill="#64CE5B"/>
<path fill-rule="evenodd" clip-rule="evenodd" d="M108.333 100.274L108.872 99.8489L108.418 99.1395L107.822 99.5084L108.305 100.218L108.333 100.274L108.305 100.218V100.274H108.333Z" fill="#64CE5B"/>
<path fill-rule="evenodd" clip-rule="evenodd" d="M108.361 84.3283L108.418 84.2148L108.901 83.2784L108.248 82.9663L107.794 83.9027L108.361 84.3283L108.39 84.2715L108.418 84.2148L108.361 84.3283Z" fill="#64CE5B"/>
<path fill-rule="evenodd" clip-rule="evenodd" d="M106.829 84.9241L107.397 85.2646L108.361 84.3282L107.851 83.8175L106.886 84.7539L106.829 84.9241L106.886 84.7539L106.829 84.839V84.9241Z" fill="#64CE5B"/>
<path fill-rule="evenodd" clip-rule="evenodd" d="M107.197 86.2009L107.254 86.059L107.51 85.0943L106.829 84.9241L106.573 85.8888L107.197 86.2009L107.254 86.1158V86.059L107.197 86.2009Z" fill="#64CE5B"/>
<path fill-rule="evenodd" clip-rule="evenodd" d="M105.836 86.8819L106.489 87.1372L107.198 86.2009L106.63 85.7753L105.921 86.7116L105.836 86.8819L105.921 86.7116L105.864 86.7967L105.836 86.8819Z" fill="#64CE5B"/>
<path fill-rule="evenodd" clip-rule="evenodd" d="M106.319 88.4425V88.4142L106.574 86.9955L105.836 86.882L105.609 88.3007L106.319 88.4425V88.4142V88.4425Z" fill="#64CE5B"/>
<path fill-rule="evenodd" clip-rule="evenodd" d="M106.063 89.4356V89.4072L106.318 88.4425L105.609 88.2722L105.382 89.2369L106.063 89.4356V89.4072V89.4356Z" fill="#64CE5B"/>
<path fill-rule="evenodd" clip-rule="evenodd" d="M104.899 90.4854L105.58 90.6273L106.063 89.4356L105.41 89.1802L104.928 90.3719L104.899 90.4854L104.928 90.3719L104.899 90.4286V90.4854Z" fill="#64CE5B"/>
<path d="M105.609 90.4855H104.899V91.6772H105.609V90.4855Z" fill="#64CE5B"/>
<path fill-rule="evenodd" clip-rule="evenodd" d="M107.283 90.7408H106.573V91.7056H107.283L106.573 90.7408H107.283Z" fill="#64CE5B"/>
<path fill-rule="evenodd" clip-rule="evenodd" d="M106.573 89.464V89.5491V90.7408H107.283V89.5491L106.573 89.464V89.5207V89.5491V89.464Z" fill="#64CE5B"/>
<path fill-rule="evenodd" clip-rule="evenodd" d="M107.51 88.6695L106.829 88.5276L106.573 89.4639L107.254 89.6342L107.51 88.6695L106.829 88.5276L107.51 88.6695Z" fill="#64CE5B"/>
<path fill-rule="evenodd" clip-rule="evenodd" d="M107.113 87.421L107.056 87.5629L106.829 88.5276L107.51 88.6695L107.737 87.7331L107.113 87.421L107.056 87.4778V87.5629L107.113 87.421Z" fill="#64CE5B"/>
<path fill-rule="evenodd" clip-rule="evenodd" d="M108.446 86.7684L107.822 86.4846L107.112 87.421L107.68 87.8466L108.389 86.9102L108.446 86.7684L108.389 86.9102L108.446 86.8535V86.7684Z" fill="#64CE5B"/>
<path fill-rule="evenodd" clip-rule="evenodd" d="M108.049 85.5483L107.993 85.6618L107.766 86.5982L108.447 86.7684L108.702 85.8321L108.049 85.5483L108.021 85.6051L107.993 85.6618L108.049 85.5483Z" fill="#64CE5B"/>
<path fill-rule="evenodd" clip-rule="evenodd" d="M108.616 84.7255L108.531 84.8106L108.049 85.5483L108.645 85.9456L109.127 85.2078L108.616 84.7255L108.56 84.7538L108.531 84.8106L108.616 84.7255Z" fill="#64CE5B"/>
<path fill-rule="evenodd" clip-rule="evenodd" d="M109.78 84.8106L109.326 84.2432L108.616 84.7255L109.013 85.3214L109.723 84.839L109.78 84.8106L109.723 84.839L109.751 84.8106H109.78Z" fill="#64CE5B"/>
<path fill-rule="evenodd" clip-rule="evenodd" d="M108.503 98.5154L108.56 98.6289L109.269 99.3383L109.78 98.8275L109.07 98.1182L108.503 98.5154L108.531 98.5722L108.56 98.6289L108.503 98.5154Z" fill="#64CE5B"/>
<path fill-rule="evenodd" clip-rule="evenodd" d="M108.673 97.2385L108.021 97.579L108.503 98.5154L109.127 98.2032L108.673 97.2385L108.021 97.579L108.673 97.2385Z" fill="#64CE5B"/>
<path fill-rule="evenodd" clip-rule="evenodd" d="M108.39 96.7278L107.794 97.0967L108.021 97.579L108.674 97.2385L108.418 96.7845L108.39 96.7278L108.418 96.7845V96.7562L108.39 96.7278Z" fill="#64CE5B"/>
<path fill-rule="evenodd" clip-rule="evenodd" d="M107.056 96.0752L107.112 96.1887L107.822 97.1534L108.389 96.7278L107.68 95.7631L107.056 96.0752V96.1319L107.112 96.1887L107.056 96.0752Z" fill="#64CE5B"/>
<path fill-rule="evenodd" clip-rule="evenodd" d="M107.51 94.9402L106.829 95.1104L107.056 96.0752L107.737 95.9049L107.51 94.9402L106.829 95.1104L107.51 94.9402Z" fill="#64CE5B"/>
<path fill-rule="evenodd" clip-rule="evenodd" d="M106.573 94.0605V94.1457L106.829 95.1104L107.51 94.9401L107.254 94.0038L106.573 94.0605V94.1173V94.1457V94.0605Z" fill="#64CE5B"/>
<path fill-rule="evenodd" clip-rule="evenodd" d="M107.283 92.6418H106.573V94.0606H107.283L106.573 92.6418H107.283Z" fill="#64CE5B"/>
<path d="M107.283 91.7056H106.573V92.6419H107.283V91.7056Z" fill="#64CE5B"/>
<path fill-rule="evenodd" clip-rule="evenodd" d="M118.094 84.7822H114.519V98.3735H118.094V84.7822ZM117.129 86.4563V86.9103V88.3574V89.8045V91.7055V93.3796V95.0537V96.4724V97.1818H116.647H116.42H115.71V96.4724V95.0537V93.3512V91.6772V89.7761V88.329V86.8819V86.4279H116.42H116.647H117.129V86.4563Z" fill="white"/>
<path fill-rule="evenodd" clip-rule="evenodd" d="M114.178 84.7822L114.575 85.1511H118.434V84.4133H114.575L114.178 84.7822L114.575 84.4133H114.178V84.7822Z" fill="#64CE5B"/>
<path fill-rule="evenodd" clip-rule="evenodd" d="M114.518 98.714L114.887 98.3735V84.7822H114.178V98.3735L114.518 98.714L114.178 98.3735V98.714H114.518Z" fill="#64CE5B"/>
<path fill-rule="evenodd" clip-rule="evenodd" d="M118.434 98.3735L118.094 98.0046H114.519V98.714H118.094L118.434 98.3735L118.094 98.714H118.434V98.3735Z" fill="#64CE5B"/>
<path d="M118.434 84.7822H117.725V98.3735H118.434V84.7822Z" fill="#64CE5B"/>
<path fill-rule="evenodd" clip-rule="evenodd" d="M116.42 97.5222H117.129V96.8129H116.42V97.5222Z" fill="#64CE5B"/>
<path fill-rule="evenodd" clip-rule="evenodd" d="M115.37 97.1817L115.711 97.5222H116.42V96.8129H115.711L115.37 97.1817V97.5222H115.711L115.37 97.1817Z" fill="#64CE5B"/>
<path fill-rule="evenodd" clip-rule="evenodd" d="M115.711 86.0874L115.37 86.4563V97.1817H116.079V86.4563L115.711 86.0874H115.37V86.4563L115.711 86.0874Z" fill="#64CE5B"/>
<path fill-rule="evenodd" clip-rule="evenodd" d="M116.419 86.0874H115.71V86.7968H116.419V86.0874Z" fill="#64CE5B"/>
<path d="M126.096 91.7623C126.096 97.6357 121.811 102.431 116.562 102.431C111.284 102.431 107.028 97.6641 107.028 91.7623C107.028 85.8888 111.313 81.0936 116.562 81.0936C121.839 81.1219 126.096 85.8888 126.096 91.7623ZM127.656 91.6771C127.656 98.3451 122.719 103.765 116.619 103.765C110.518 103.765 105.581 98.3451 105.581 91.6771C105.581 85.0092 110.518 79.5897 116.619 79.5897C122.691 79.5897 127.656 85.0092 127.656 91.6771Z" stroke="#64CE5B" stroke-width="2.794"/>
<path fill-rule="evenodd" clip-rule="evenodd" d="M100.502 80.2423L102.63 80.7247L104.786 81.207L106.205 82.1434L108.106 83.8458L109.298 85.4915L110.007 87.3926L110.716 89.5491L110.972 91.7055L110.716 94.0606L110.007 96.217L109.298 97.8911L108.106 99.7922L106.205 100.984L104.786 101.949L102.63 102.658L100.502 102.885L98.6007 102.658L96.4443 101.949L94.5432 100.984L93.1245 99.7922L91.7058 97.8911L90.741 96.217L90.2587 94.0606L89.8047 91.7055L90.2587 89.5491L90.741 87.3926L91.7058 85.4915L93.1245 83.8458L94.5432 82.1434L96.4443 81.207L98.6007 80.7247L100.502 80.2423Z" fill="white"/>
<path fill-rule="evenodd" clip-rule="evenodd" d="M100.502 103.594L102.63 103.112L104.786 102.63L106.943 101.693L108.361 100.019L109.808 98.345L110.745 96.1886L111.227 94.0321L111.71 91.6487L111.227 89.2653L110.745 86.8818L109.808 84.9807L108.361 83.0797L106.943 81.888L104.786 80.6962L102.63 79.9869L100.502 79.7599L98.1183 79.9869L96.2172 80.6962L94.3161 81.888L92.6421 83.0797L91.4503 84.9807L90.2586 86.8818L89.5493 89.2653L89.3223 91.6487L89.5493 94.0321L90.2586 96.1886L91.4503 98.345L92.6421 100.019L94.3161 101.693L96.2172 102.63L98.1183 103.112L100.502 103.594ZM99.31 89.776V93.5781H110.007L108.815 97.1533L106.914 99.7637L103.821 101.665L102.403 101.892L100.502 102.119L98.6006 101.892L96.6996 101.182L95.0255 100.218L93.3798 99.026L92.1881 97.3519L91.7341 95.9332L91.0247 94.0321L90.7977 91.6487L91.0247 89.4922L91.7341 87.5912L92.1881 85.6901L93.3798 84.016L95.0255 82.8243L96.6996 82.1149L98.6006 81.661L100.502 81.1786L102.403 81.661L103.821 81.888L106.914 83.789L108.815 86.3995L110.007 89.7192H99.31V89.776Z" fill="white"/>
<path fill-rule="evenodd" clip-rule="evenodd" d="M93.0967 81.9448L93.5507 82.4555L94.26 81.9731L93.8912 81.4056L93.1534 81.8596L93.0967 81.9448L93.1534 81.8596L93.1251 81.888L93.0967 81.9448Z" fill="#64CE5B"/>
<path fill-rule="evenodd" clip-rule="evenodd" d="M92.8975 83.3634L92.9259 83.335L93.6352 82.3703L93.0961 81.9447L92.3584 82.9094L92.8975 83.3634L92.9259 83.335L92.8975 83.3634Z" fill="#64CE5B"/>
<path fill-rule="evenodd" clip-rule="evenodd" d="M91.4219 83.8459L91.9326 84.3282L92.8973 83.3635L92.415 82.8528L91.4503 83.8175L91.4219 83.8459L91.4503 83.8175L91.4219 83.8459Z" fill="#64CE5B"/>
<path fill-rule="evenodd" clip-rule="evenodd" d="M90.6562 84.8673L91.2805 85.2362L91.9898 84.2714L91.4224 83.8458L90.713 84.8105L90.6562 84.8673L90.713 84.8105L90.6846 84.8389L90.6562 84.8673Z" fill="#64CE5B"/>
<path fill-rule="evenodd" clip-rule="evenodd" d="M90.1738 85.8888L90.8264 86.1442L91.3088 85.1794L90.6562 84.8673L90.2022 85.8037L90.1738 85.8888L90.2022 85.8037L90.1738 85.8604V85.8888Z" fill="#64CE5B"/>
<path fill-rule="evenodd" clip-rule="evenodd" d="M90.599 87.0805L90.6273 86.9954L90.8543 86.059L90.1733 85.8888L89.918 86.8251L90.599 87.0805V87.0521L90.6273 86.9954L90.599 87.0805Z" fill="#64CE5B"/>
<path fill-rule="evenodd" clip-rule="evenodd" d="M89.4355 87.8183L90.1165 88.0453L90.5989 87.0806L89.9463 86.7684L89.4639 87.7048L89.4355 87.8183L89.4639 87.7048V87.7615L89.4355 87.8183Z" fill="#64CE5B"/>
<path fill-rule="evenodd" clip-rule="evenodd" d="M89.9183 89.3788L90.1453 87.9317L89.436 87.8182L89.209 89.2653L89.9183 89.3788Z" fill="#64CE5B"/>
<path fill-rule="evenodd" clip-rule="evenodd" d="M88.9531 90.4854L89.6625 90.5705L89.9178 89.3788L89.2085 89.2369L88.9815 90.4287L88.9531 90.4854L88.9815 90.4287L88.9531 90.457V90.4854Z" fill="#64CE5B"/>
<path fill-rule="evenodd" clip-rule="evenodd" d="M88.9531 91.7054H89.6625V90.4854H88.9531L89.6625 91.7054H88.9531Z" fill="#64CE5B"/>
<path fill-rule="evenodd" clip-rule="evenodd" d="M88.9815 92.6985L89.6625 92.6418V91.7054H88.9531V92.6418L88.9815 92.6985L88.9531 92.6418V92.6702L88.9815 92.6985Z" fill="#64CE5B"/>
<path fill-rule="evenodd" clip-rule="evenodd" d="M89.2094 94.1457L89.9188 94.0322L89.6634 92.5851L88.9824 92.6986L89.2094 94.1457Z" fill="#64CE5B"/>
<path fill-rule="evenodd" clip-rule="evenodd" d="M89.4644 95.4225L90.1453 95.1955L89.9183 94.0038L89.209 94.1457L89.436 95.3374L89.4644 95.4225L89.436 95.3374L89.4644 95.3658V95.4225Z" fill="#64CE5B"/>
<path fill-rule="evenodd" clip-rule="evenodd" d="M90.6272 96.1602L90.5988 96.0467L90.1165 95.1104L89.4639 95.4225L89.9462 96.3872L90.6272 96.1602L90.5988 96.1034V96.0467L90.6272 96.1602Z" fill="#64CE5B"/>
<path fill-rule="evenodd" clip-rule="evenodd" d="M90.2017 97.579L90.8543 97.352L90.6273 96.1603L89.918 96.3021L90.1733 97.4939L90.2017 97.579L90.1733 97.4939V97.5222L90.2017 97.579Z" fill="#64CE5B"/>
<path fill-rule="evenodd" clip-rule="evenodd" d="M90.7129 98.5721L91.3087 98.2032L90.8264 97.2385L90.2021 97.579L90.6561 98.5154L90.7129 98.5721L90.6561 98.5154L90.6845 98.5437L90.7129 98.5721Z" fill="#64CE5B"/>
<path fill-rule="evenodd" clip-rule="evenodd" d="M91.479 99.5936L91.9897 99.1112L91.2804 98.1465L90.7129 98.5721L91.4222 99.5368L91.479 99.5936L91.4222 99.5368L91.4506 99.5652L91.479 99.5936Z" fill="#64CE5B"/>
<path fill-rule="evenodd" clip-rule="evenodd" d="M92.9256 99.8205L92.8689 99.7637L91.9041 99.026L91.4785 99.5935L92.4432 100.303L92.9256 99.8205L92.8972 99.7637H92.8689L92.9256 99.8205Z" fill="#64CE5B"/>
<path fill-rule="evenodd" clip-rule="evenodd" d="M93.1245 101.239L93.6352 100.785L92.9259 99.8206L92.3584 100.246L93.0678 101.183L93.1245 101.239L93.0678 101.183L93.0961 101.211L93.1245 101.239Z" fill="#64CE5B"/>
<path fill-rule="evenodd" clip-rule="evenodd" d="M93.9479 102.034L94.3167 101.438L93.6074 100.729L93.125 101.239L93.8344 101.949L93.9479 102.034L93.8344 101.949L93.8911 102.005L93.9479 102.034Z" fill="#64CE5B"/>
<path fill-rule="evenodd" clip-rule="evenodd" d="M99.3103 93.947L99.6508 93.6065V89.776H98.9414V93.6065L99.3103 93.947L98.9414 93.6065V93.947H99.3103Z" fill="#64CE5B"/>
<path fill-rule="evenodd" clip-rule="evenodd" d="M109.979 93.6917L109.667 93.2377H99.3105V93.947H109.667L109.979 93.6917L110.093 93.2377H109.667L109.979 93.6917Z" fill="#64CE5B"/>
<path fill-rule="evenodd" clip-rule="evenodd" d="M93.1534 98.1465L92.5859 98.5721L93.0683 99.2815L93.6642 98.8842L93.1818 98.1749L93.1534 98.1465L93.1818 98.1749L93.1534 98.1465Z" fill="#64CE5B"/>
<path fill-rule="evenodd" clip-rule="evenodd" d="M91.8193 97.4939L91.9045 97.6074L92.6138 98.5721L93.1529 98.1465L92.4436 97.1818L91.8193 97.4939L91.8477 97.579L91.9045 97.6074L91.8193 97.4939Z" fill="#64CE5B"/>
<path fill-rule="evenodd" clip-rule="evenodd" d="M92.2454 96.3021L91.5928 96.5575L91.8198 97.4938L92.5291 97.3236L92.2738 96.3873L92.2454 96.3021L92.2738 96.3873V96.3305L92.2454 96.3021Z" fill="#64CE5B"/>
<path fill-rule="evenodd" clip-rule="evenodd" d="M91.7629 95.3374L91.1387 95.6779L91.621 96.6142L92.2453 96.3021L91.7629 95.3374L91.1387 95.6779L91.7629 95.3374Z" fill="#64CE5B"/>
<path fill-rule="evenodd" clip-rule="evenodd" d="M90.6279 94.628L90.6563 94.7131L91.1387 95.6778L91.7629 95.3373L91.3089 94.401L90.6279 94.628L90.6563 94.6847V94.7131L90.6279 94.628Z" fill="#64CE5B"/>
<path fill-rule="evenodd" clip-rule="evenodd" d="M90.3721 93.6066L90.4004 93.6917L90.6274 94.6281L91.3368 94.4578L91.1098 93.5215L90.3721 93.6066V93.635L90.4004 93.6917L90.3721 93.6066Z" fill="#64CE5B"/>
<path fill-rule="evenodd" clip-rule="evenodd" d="M91.1098 92.6418H90.3721V93.6066H91.1098L90.3721 92.6418H91.1098Z" fill="#64CE5B"/>
<path fill-rule="evenodd" clip-rule="evenodd" d="M91.1098 91.7054H90.3721V92.6418H91.1098L90.3721 91.7054H91.1098Z" fill="#64CE5B"/>
<path fill-rule="evenodd" clip-rule="evenodd" d="M91.1098 90.4854H90.3721V91.7054H91.1098L90.3721 90.4854H91.1098Z" fill="#64CE5B"/>
<path fill-rule="evenodd" clip-rule="evenodd" d="M90.4004 89.4639L90.3721 89.549V90.4853H91.1098V89.549L90.4004 89.4639L90.3721 89.5206V89.549L90.4004 89.4639Z" fill="#64CE5B"/>
<path fill-rule="evenodd" clip-rule="evenodd" d="M90.6558 88.4425L90.6274 88.5276L90.4004 89.464L91.1097 89.6342L91.3367 88.6695L90.6558 88.4425V88.4709L90.6274 88.5276L90.6558 88.4425Z" fill="#64CE5B"/>
<path fill-rule="evenodd" clip-rule="evenodd" d="M91.7628 87.7899L91.1386 87.4778L90.6562 88.4425L91.3089 88.7546L91.7628 87.7899L91.1386 87.4778L91.7628 87.7899Z" fill="#64CE5B"/>
<path fill-rule="evenodd" clip-rule="evenodd" d="M92.2736 86.7684L91.621 86.5414L91.1387 87.4777L91.7629 87.7898L92.2453 86.8535L92.2736 86.7684L92.2453 86.8535L92.2736 86.8251V86.7684Z" fill="#64CE5B"/>
<path fill-rule="evenodd" clip-rule="evenodd" d="M91.9333 85.4916L91.8198 85.6618L91.5928 86.5982L92.2738 86.7684L92.5291 85.8037L91.9333 85.4916L91.8481 85.5483L91.8198 85.6618L91.9333 85.4916Z" fill="#64CE5B"/>
<path fill-rule="evenodd" clip-rule="evenodd" d="M93.2095 85.1794L92.642 84.7538L91.9326 85.4915L92.415 85.9739L93.1243 85.2645L93.2095 85.1794L93.1243 85.2645L93.1811 85.2361L93.2095 85.1794Z" fill="#64CE5B"/>
<path fill-rule="evenodd" clip-rule="evenodd" d="M93.2102 83.7607L93.0399 83.9026L92.5859 84.8673L93.2102 85.1795L93.6925 84.2147L93.2102 83.7607L93.0967 83.7891L93.0399 83.9026L93.2102 83.7607Z" fill="#64CE5B"/>
<path d="M110.007 89.4355H98.9414V90.1449H110.007V89.4355Z" fill="#64CE5B"/>
<path d="M111.653 90.7407H100.246V92.4148H111.653V90.7407Z" fill="#64CE5B"/>
<path d="M109.922 91.7622C109.922 97.6357 105.637 102.431 100.388 102.431C95.1106 102.431 90.8544 97.6641 90.8544 91.7622C90.8544 85.8887 95.1389 81.0935 100.388 81.0935C105.637 81.1219 109.922 85.8887 109.922 91.7622ZM111.426 91.7055C111.426 98.3734 106.489 103.793 100.388 103.793C94.2877 103.793 89.3506 98.3734 89.3506 91.7055C89.3506 85.0375 94.2877 79.618 100.388 79.618C106.489 79.618 111.426 85.0375 111.426 91.7055Z" stroke="#64CE5B" stroke-width="2.794"/>
<path d="M93.38 80.7246H84.584V102.63H93.38V80.7246Z" fill="white"/>
<path fill-rule="evenodd" clip-rule="evenodd" d="M93.3794 80.0153H83.8457V103.14H94.0888V80.0153H93.3794ZM92.6417 81.6893V81.9163V82.8811V85.0375V88.3573V91.7054V95.2806V98.1464V100.757V101.722V101.949H91.9324H90.9676H89.0666H86.9385H85.9738H85.4914V101.722V100.757V98.1464V95.2806V91.7054V88.3573V85.0375V82.8811V81.9163V81.6893H85.9738H86.9385H89.0666H90.9676H91.9324H92.6417Z" fill="white"/>
<path fill-rule="evenodd" clip-rule="evenodd" d="M83.5059 80.0153L83.8463 80.3842H93.3801V79.6748H83.8463L83.5059 80.0153L83.8463 79.6748H83.5059V80.0153Z" fill="#64CE5B"/>
<path fill-rule="evenodd" clip-rule="evenodd" d="M83.8463 103.481L84.2152 103.14V80.0153H83.5059V103.14L83.8463 103.481L83.5059 103.14V103.481H83.8463Z" fill="#64CE5B"/>
<path fill-rule="evenodd" clip-rule="evenodd" d="M94.4293 103.14L94.0888 102.771H83.8457V103.481H94.0888L94.4293 103.14L94.0888 103.481H94.4293V103.14Z" fill="#64CE5B"/>
<path fill-rule="evenodd" clip-rule="evenodd" d="M94.0896 79.6748L93.7207 80.0153V103.14H94.4301V80.0153L94.0896 79.6748L94.4301 80.0153V79.6748H94.0896Z" fill="#64CE5B"/>
<path d="M94.0892 79.6748H93.3799V80.3842H94.0892V79.6748Z" fill="#64CE5B"/>
<path fill-rule="evenodd" clip-rule="evenodd" d="M92.6422 102.289L93.0111 101.949V81.6893H92.3018V101.949L92.6422 102.289H93.0111V101.949L92.6422 102.289Z" fill="#64CE5B"/>
<path fill-rule="evenodd" clip-rule="evenodd" d="M85.1514 101.949L85.5202 102.289H92.6422V101.58H85.5202L85.1514 101.949V102.289H85.5202L85.1514 101.949Z" fill="#64CE5B"/>
<path fill-rule="evenodd" clip-rule="evenodd" d="M85.5202 81.3206L85.1514 81.6894V101.949H85.8891V81.6894L85.5202 81.3206H85.1514V81.6894L85.5202 81.3206Z" fill="#64CE5B"/>
<path d="M93.0113 81.3206H85.5205V82.0299H93.0113V81.3206Z" fill="#64CE5B"/>
<path fill-rule="evenodd" clip-rule="evenodd" d="M70.7656 80.7246H79.5616V92.4148H84.5839V102.658H71.475H70.7656V80.7246Z" fill="white"/>
<path fill-rule="evenodd" clip-rule="evenodd" d="M79.562 80.0153H70.0566V103.14H85.5206V91.7054H85.0382H84.8112H83.3642H81.4631H80.9807H80.2714V90.7407V89.549V87.6479V85.4915V83.5904V81.6893V80.2423V80.0153H79.562ZM78.8527 81.6893V82.6257V84.0444V85.7185V87.8749V89.776V91.6771V93.0958V93.3511H79.0796H79.562H80.9807H82.6548H83.8465V94.0605V95.0252V97.4087V100.274V101.239V101.949H83.1372H81.4631H79.562H77.4056H75.2775H73.1211H71.9293H71.447V101.722V100.757V98.1464V95.2806V91.7054V88.3573V85.0375V82.8811V81.9163V81.6893H71.9293H72.8941H75.2775H77.4056H78.3703H78.8527Z" fill="white"/>
<path fill-rule="evenodd" clip-rule="evenodd" d="M69.6875 80.0153L70.0564 80.3842H79.5617V79.6748H70.0564L69.6875 80.0153L70.0564 79.6748H69.6875V80.0153Z" fill="#64CE5B"/>
<path fill-rule="evenodd" clip-rule="evenodd" d="M70.0564 103.481L70.4252 103.14V80.0153H69.6875V103.14L70.0564 103.481L69.6875 103.14V103.481H70.0564Z" fill="#64CE5B"/>
<path fill-rule="evenodd" clip-rule="evenodd" d="M85.8895 103.14L85.5206 102.771H70.0566V103.481H85.5206L85.8895 103.14L85.5206 103.481H85.8895V103.14Z" fill="#64CE5B"/>
<path fill-rule="evenodd" clip-rule="evenodd" d="M85.5202 91.3367L85.1514 91.7055V103.14H85.8891V91.7055L85.5202 91.3367L85.8891 91.7055V91.3367H85.5202Z" fill="#64CE5B"/>
<path fill-rule="evenodd" clip-rule="evenodd" d="M79.9307 91.7055L80.2712 92.046H85.5204V91.3367H80.2712L79.9307 91.7055V92.046H80.2712L79.9307 91.7055Z" fill="#64CE5B"/>
<path fill-rule="evenodd" clip-rule="evenodd" d="M80.2712 79.6748L79.9307 80.0153V91.7055H80.64V80.0153L80.2712 79.6748L80.64 80.0153V79.6748H80.2712Z" fill="#64CE5B"/>
<path d="M80.2709 79.6748H79.5615V80.3842H80.2709V79.6748Z" fill="#64CE5B"/>
<path fill-rule="evenodd" clip-rule="evenodd" d="M78.8522 93.72L79.2211 93.3511V81.6893H78.5117V93.3511L78.8522 93.72L78.5117 93.3511V93.72H78.8522Z" fill="#64CE5B"/>
<path fill-rule="evenodd" clip-rule="evenodd" d="M84.2153 93.3512L83.8464 93.0107H78.8525V93.7201H83.8464L84.2153 93.3512V93.0107H83.8464L84.2153 93.3512Z" fill="#64CE5B"/>
<path fill-rule="evenodd" clip-rule="evenodd" d="M83.8463 102.289L84.2152 101.949V93.3512H83.5059V101.949L83.8463 102.289H84.2152V101.949L83.8463 102.289Z" fill="#64CE5B"/>
<path fill-rule="evenodd" clip-rule="evenodd" d="M71.1348 101.949L71.4753 102.289H83.8464V101.58H71.4753L71.1348 101.949V102.289H71.4753L71.1348 101.949Z" fill="#64CE5B"/>
<path fill-rule="evenodd" clip-rule="evenodd" d="M71.4753 81.3206L71.1348 81.6894V101.949H71.8441V81.6894L71.4753 81.3206H71.1348V81.6894L71.4753 81.3206Z" fill="#64CE5B"/>
<path d="M79.2214 81.2354H71.1348V81.9447H79.2214V81.2354Z" fill="#64CE5B"/>
<path fill-rule="evenodd" clip-rule="evenodd" d="M64.1263 80.7246L73.6317 102.658H63.3886L63.1616 91.4501H60.5511V102.658H50.0811L59.5864 80.7246H64.1263Z" fill="white"/>
<path fill-rule="evenodd" clip-rule="evenodd" d="M64.1266 80.0153H59.3597L48.918 103.14H61.0054V102.913V101.722V100.047V98.1464V96.2453V94.3442V93.1525V92.1878H61.7147H61.9417H62.4241V93.1525V94.3442V96.2453V98.1464V100.047V101.722V102.913V103.14H74.7953L64.3536 80.0153H64.1266ZM63.3888 81.6893L63.6442 81.9163L64.1266 82.6257L64.8359 84.7821L66.0276 87.8749L67.9287 91.4501L69.3758 95.0252L70.7945 98.118L71.9862 100.728L72.4686 101.211L72.6956 101.92H71.7592H70.5675H67.9571H65.5453H64.5805H64.1266V100.955V99.7637V97.891V95.9899V93.6065V92.1878V90.7691V90.5137H59.5867V90.7691V92.1878V93.6065V95.9899V97.891V99.7921V100.984V101.949H58.8773H58.168H55.7845H52.9471H52.2094H51.273L51.5 101.239L51.7554 100.757L52.6917 98.1464L54.1388 95.0536L55.7845 91.4784L57.2316 87.9033L58.6503 84.8105L59.6151 82.6541L59.842 81.9447L60.0974 81.7177H60.8068H61.9985H62.9632H63.3888V81.6893Z" fill="white"/>
<path fill-rule="evenodd" clip-rule="evenodd" d="M59.0469 79.8734L59.359 80.3842H64.1259V79.6748H59.359L59.0469 79.8734L59.359 79.6748H59.132L59.0469 79.8734Z" fill="#64CE5B"/>
<path fill-rule="evenodd" clip-rule="evenodd" d="M48.8887 103.481L49.2292 103.282L59.6709 80.1572L59.0467 79.8734L48.5766 102.97L48.8887 103.481L48.5766 102.97L48.3496 103.481H48.8887Z" fill="#64CE5B"/>
<path fill-rule="evenodd" clip-rule="evenodd" d="M61.3733 103.14L61.0045 102.771H48.8887V103.481H61.0045L61.3733 103.14L61.0045 103.481H61.3733V103.14Z" fill="#64CE5B"/>
<path fill-rule="evenodd" clip-rule="evenodd" d="M61.0046 91.819L60.6641 92.1595V103.14H61.3734V92.1595L61.0046 91.819H60.6641V92.1595L61.0046 91.819Z" fill="#64CE5B"/>
<path fill-rule="evenodd" clip-rule="evenodd" d="M61.9696 91.819H61.0049V92.5283H61.9696V91.819Z" fill="#64CE5B"/>
<path fill-rule="evenodd" clip-rule="evenodd" d="M62.7926 92.1595L62.4521 91.819H61.9697V92.5283H62.4521L62.7926 92.1595V91.819H62.4521L62.7926 92.1595Z" fill="#64CE5B"/>
<path fill-rule="evenodd" clip-rule="evenodd" d="M62.4519 103.481L62.7924 103.14V92.1594H62.083V103.14L62.4519 103.481L62.083 103.14V103.481H62.4519Z" fill="#64CE5B"/>
<path fill-rule="evenodd" clip-rule="evenodd" d="M75.1354 102.97L74.8233 102.771H62.4521V103.481H74.8233L75.1354 102.97L74.8233 103.481H75.3624L75.1354 102.97Z" fill="#64CE5B"/>
<path fill-rule="evenodd" clip-rule="evenodd" d="M64.3532 79.6748L64.0127 80.1572L74.4828 103.282L75.1354 102.97L64.6937 79.8734L64.3532 79.6748L64.6937 79.8734L64.5802 79.6748H64.3532Z" fill="#64CE5B"/>
<path d="M64.353 79.6748H64.126V80.3842H64.353V79.6748Z" fill="#64CE5B"/>
<path fill-rule="evenodd" clip-rule="evenodd" d="M72.6671 102.289L73.0076 101.778L63.6441 81.3206H62.8496L72.355 102.09L72.6671 102.289H73.2346L73.0076 101.778L72.6671 102.289Z" fill="#64CE5B"/>
<path fill-rule="evenodd" clip-rule="evenodd" d="M63.7568 101.949L64.1257 102.289H72.6663V101.58H64.1257L63.7568 101.949V102.289H64.1257L63.7568 101.949Z" fill="#64CE5B"/>
<path fill-rule="evenodd" clip-rule="evenodd" d="M64.1257 90.1449L63.7568 90.4854V101.949H64.4662V90.4854L64.1257 90.1449L64.4662 90.4854V90.1449H64.1257Z" fill="#64CE5B"/>
<path fill-rule="evenodd" clip-rule="evenodd" d="M59.2461 90.4854L59.5866 90.8543H64.1265V90.1449H59.5866L59.2461 90.4854L59.5866 90.1449H59.2461V90.4854Z" fill="#64CE5B"/>
<path fill-rule="evenodd" clip-rule="evenodd" d="M59.5866 102.289L59.9554 101.949V90.4854H59.2461V101.949L59.5866 102.289H59.9554V101.949L59.5866 102.289Z" fill="#64CE5B"/>
<path fill-rule="evenodd" clip-rule="evenodd" d="M50.9604 101.807L51.2725 102.289H59.5862V101.58H51.2725L50.9604 101.807L50.7334 102.289H51.2725L50.9604 101.807Z" fill="#64CE5B"/>
<path fill-rule="evenodd" clip-rule="evenodd" d="M60.0691 81.3206L59.7569 81.5475L50.9609 101.807L51.5852 102.09L60.3812 81.8313L60.0691 81.3206H59.8421L59.7569 81.5475L60.0691 81.3206Z" fill="#64CE5B"/>
<path fill-rule="evenodd" clip-rule="evenodd" d="M63.6152 81.3206H60.0117V82.0299H63.9557L63.6152 81.3206Z" fill="#64CE5B"/>
<path fill-rule="evenodd" clip-rule="evenodd" d="M34.6172 80.98V91.4501L34.8726 93.6065L35.5819 95.9899L36.2913 97.4087L37.483 99.3097L39.3841 100.757L41.0581 101.693L42.9308 102.176L45.0873 102.658L46.9884 102.176L49.1448 101.693L51.0459 100.757L52.6916 99.3097L53.8833 97.4087L54.848 95.9899L55.3304 93.6065L55.7844 91.4501V80.98H46.7614V91.7054H43.4132V80.7246H34.6172V80.98Z" fill="white"/>
<path fill-rule="evenodd" clip-rule="evenodd" d="M33.6807 80.98V91.4784L33.9077 93.6349L34.617 96.0183L35.8087 98.1748L37.0004 99.8488L38.6745 101.296L40.5756 102.232L42.732 102.942L45.1155 103.169L47.4989 102.942L49.4 102.232L51.3011 101.296L52.9751 99.8488L54.6208 98.1748L55.3302 96.0183L56.0396 93.6349L56.2666 91.4784V80.0153H46.2788V80.2706V81.7177V83.1364V85.0375V86.9386V88.8396V90.2867V91.2515H45.3425H44.3778V90.2867V89.5774V88.868V87.6763V85.7752V83.1648V80.0153H43.186H33.6807V80.98ZM42.9307 81.6893V82.6257V83.8174V85.7185V87.6196V89.2936V90.7123V92.1311V92.3864H47.4422V92.1311V90.7123V89.2936V87.6196V85.7185V83.8174V82.6257V81.6893H47.9529H48.9176H51.3011H53.4291H54.1385H54.8478V82.6257V83.8174V86.9102V88.5843V90.2584V91.2231V91.4501L54.5925 93.6065L53.8831 95.5076L52.9468 97.1817L51.7551 98.8557L50.308 100.047L48.8893 101.012L46.9882 101.722L45.0871 101.949L42.9307 101.722L41.0296 101.012L39.6109 100.047L38.1638 98.8557L36.9721 97.1817L36.0357 95.5076L35.5534 93.6065L35.071 91.4501V91.2231V90.2584V88.8113V87.3926V84.0728V82.6541V81.7177H35.7804H36.7451H39.1285H41.512H42.2213H42.9307V81.6893Z" fill="white"/>
<path fill-rule="evenodd" clip-rule="evenodd" d="M33.3399 91.5352L34.0209 91.4501V80.98H33.3115V91.4501L33.3399 91.5352L33.3115 91.4501V91.4784L33.3399 91.5352Z" fill="#64CE5B"/>
<path fill-rule="evenodd" clip-rule="evenodd" d="M34.2762 92.6419V92.5851L34.0208 91.3934L33.3398 91.5353L33.5668 92.727L34.2762 92.6419V92.6135V92.5851V92.6419Z" fill="#64CE5B"/>
<path fill-rule="evenodd" clip-rule="evenodd" d="M33.5674 93.7201L34.2768 93.6066V92.6418H33.5391V93.6066L33.5674 93.7201L33.5391 93.6066L33.5674 93.6633V93.7201Z" fill="#64CE5B"/>
<path fill-rule="evenodd" clip-rule="evenodd" d="M34.7307 94.9401V94.9118L34.2484 93.493L33.5674 93.72L34.0497 95.1387L34.7307 94.9401V94.9118V94.9401Z" fill="#64CE5B"/>
<path fill-rule="evenodd" clip-rule="evenodd" d="M34.3052 96.1035L34.9862 95.9049L34.7308 94.9402L34.0498 95.1104L34.2768 96.0752L34.3052 96.1035L34.2768 96.0752V96.1035H34.3052Z" fill="#64CE5B"/>
<path fill-rule="evenodd" clip-rule="evenodd" d="M34.8154 97.3804L35.4397 97.0399L34.9573 95.8481L34.3047 96.1035L34.7587 97.2952L34.8154 97.3804L34.7587 97.2952L34.787 97.352L34.8154 97.3804Z" fill="#64CE5B"/>
<path fill-rule="evenodd" clip-rule="evenodd" d="M36.1206 97.9762L36.0923 97.9194L35.3829 96.9547L34.8154 97.3803L35.5248 98.345L36.1206 97.9762V97.9478L36.0923 97.9194L36.1206 97.9762Z" fill="#64CE5B"/>
<path fill-rule="evenodd" clip-rule="evenodd" d="M36.0636 99.3665L36.6027 98.9126L36.1203 97.9762L35.4961 98.2883L35.9785 99.253L36.0636 99.3665L35.9785 99.253L36.0068 99.3098L36.0636 99.3665Z" fill="#64CE5B"/>
<path fill-rule="evenodd" clip-rule="evenodd" d="M37.5399 99.5935L37.4548 99.5084L36.4901 98.7991L36.0645 99.3666L37.0292 100.076L37.5399 99.5935L37.5115 99.5368L37.4548 99.5084L37.5399 99.5935Z" fill="#64CE5B"/>
<path fill-rule="evenodd" clip-rule="evenodd" d="M56.2663 79.6748L55.9258 80.0153V91.4501H56.6351V80.0153L56.2663 79.6748L56.6351 80.0153V79.6748H56.2663Z" fill="#64CE5B"/>
<path fill-rule="evenodd" clip-rule="evenodd" d="M45.9385 80.0153L46.279 80.3842H56.2667V79.6748H46.279L45.9385 80.0153L46.279 79.6748H45.9385V80.0153Z" fill="#64CE5B"/>
<path fill-rule="evenodd" clip-rule="evenodd" d="M46.279 91.5636L46.6478 91.2231V80.0153H45.9385V91.2231L46.279 91.5636H46.6478V91.2231L46.279 91.5636Z" fill="#64CE5B"/>
<path fill-rule="evenodd" clip-rule="evenodd" d="M44.0088 91.2231L44.3777 91.5636H46.2787V90.8542H44.3777L44.0088 91.2231V91.5636H44.3777L44.0088 91.2231Z" fill="#64CE5B"/>
<path fill-rule="evenodd" clip-rule="evenodd" d="M44.3777 79.6748L44.0088 80.0153V91.2231H44.7465V80.0153L44.3777 79.6748L44.7465 80.0153V79.6748H44.3777Z" fill="#64CE5B"/>
<path fill-rule="evenodd" clip-rule="evenodd" d="M43.1855 80.3842H44.3773V79.6748H43.1855V80.3842Z" fill="#64CE5B"/>
<path fill-rule="evenodd" clip-rule="evenodd" d="M33.3115 80.0153L33.6804 80.3842H43.1858V79.6748H33.6804L33.3115 80.0153L33.6804 79.6748H33.3115V80.0153Z" fill="#64CE5B"/>
<path d="M34.0209 80.0153H33.3115V80.98H34.0209V80.0153Z" fill="#64CE5B"/>
<path fill-rule="evenodd" clip-rule="evenodd" d="M42.9303 92.7553L43.2992 92.4148V81.6893H42.5898V92.4148L42.9303 92.7553L42.5898 92.4148V92.7553H42.9303Z" fill="#64CE5B"/>
<path fill-rule="evenodd" clip-rule="evenodd" d="M47.8394 92.4149L47.4705 92.046H42.9307V92.7554H47.4705L47.8394 92.4149L47.4705 92.7554H47.8394V92.4149Z" fill="#64CE5B"/>
<path fill-rule="evenodd" clip-rule="evenodd" d="M47.4704 81.3206L47.1016 81.6894V92.4149H47.8393V81.6894L47.4704 81.3206H47.1016V81.6894L47.4704 81.3206Z" fill="#64CE5B"/>
<path d="M45.1723 103.509C51.2682 103.509 56.2099 98.0975 56.2099 91.4218C56.2099 84.7461 51.2682 79.3344 45.1723 79.3344C39.0765 79.3344 34.1348 84.7461 34.1348 91.4218C34.1348 98.0975 39.0765 103.509 45.1723 103.509Z" stroke="#64CE5B" stroke-width="2.794"/>
<path fill-rule="evenodd" clip-rule="evenodd" d="M37.2843 96.9547L36.6885 97.3236L37.1708 98.2883L37.7951 97.9762L37.3127 97.0115L37.2843 96.9547L37.3127 97.0115V96.9831L37.2843 96.9547Z" fill="#64CE5B"/>
<path fill-rule="evenodd" clip-rule="evenodd" d="M35.9502 96.3022L36.0069 96.444L36.7163 97.3804L37.2838 96.9548L36.5744 96.0184L35.9502 96.3022V96.3873L36.0069 96.444L35.9502 96.3022Z" fill="#64CE5B"/>
<path fill-rule="evenodd" clip-rule="evenodd" d="M36.4047 95.1671L35.6953 95.3374L35.9507 96.3021L36.6317 96.1318L36.4047 95.1671L35.6953 95.3374L36.4047 95.1671Z" fill="#64CE5B"/>
<path fill-rule="evenodd" clip-rule="evenodd" d="M36.1488 94.2308L35.4678 94.4011L35.6948 95.3374L36.4041 95.1672L36.1488 94.2308L35.4678 94.4011L36.1488 94.2308Z" fill="#64CE5B"/>
<path fill-rule="evenodd" clip-rule="evenodd" d="M35.8938 93.2094L35.2412 93.4363L35.4682 94.4011L36.1492 94.2308L35.9222 93.2661L35.8938 93.2094L35.9222 93.2661V93.2377L35.8938 93.2094Z" fill="#64CE5B"/>
<path fill-rule="evenodd" clip-rule="evenodd" d="M34.7305 92.4149L34.7872 92.5567L35.2696 93.5215L35.8938 93.2094L35.4115 92.2446L34.7305 92.4149V92.5L34.7872 92.5567L34.7305 92.4149Z" fill="#64CE5B"/>
<path fill-rule="evenodd" clip-rule="evenodd" d="M35.4682 91.4501H34.7305V92.4148H35.4682L34.7305 91.4501H35.4682Z" fill="#64CE5B"/>
<path fill-rule="evenodd" clip-rule="evenodd" d="M35.0993 81.3206L34.7305 81.6894V91.4502H35.4682V81.6894L35.0993 81.3206H34.7305V81.6894L35.0993 81.3206Z" fill="#64CE5B"/>
<path d="M43.2998 81.3206H35.0996V82.0299H43.2998V81.3206Z" fill="#64CE5B"/>
<path d="M45.2009 102.005C50.5132 102.005 54.8198 97.2288 54.8198 91.3367C54.8198 85.4445 50.5132 80.668 45.2009 80.668C39.8885 80.668 35.582 85.4445 35.582 91.3367C35.582 97.2288 39.8885 102.005 45.2009 102.005Z" stroke="#64CE5B" stroke-width="2.794"/>
<path fill-rule="evenodd" clip-rule="evenodd" d="M39.6105 91.4501L39.3835 93.6065L38.6741 95.9899L37.9648 97.4087L36.7731 99.3097L34.872 100.757L33.4249 101.693L31.2968 102.176L29.1688 102.658L27.2677 102.176L25.1113 101.693L23.2102 100.757L21.7915 99.3097L20.3728 97.4087L19.408 95.9899L18.9257 93.6065L18.4717 91.4501L18.9257 89.322L19.408 86.9102L20.3728 85.0091L21.7915 83.5904L23.2102 81.9163L25.1113 80.98L27.2677 80.2423L29.1688 80.0153L31.2968 80.2423L33.4249 80.98L34.872 81.9163L36.7731 83.5904L37.9648 85.0091L38.6741 86.9102L39.3835 89.322L39.6105 91.4501Z" fill="white"/>
<path fill-rule="evenodd" clip-rule="evenodd" d="M29.1693 102.771H27.9775V103.481H29.1693V102.771Z" fill="#64CE5B"/>
<path fill-rule="evenodd" clip-rule="evenodd" d="M17.9893 91.4501L18.2163 93.6065L18.9256 95.99L20.1173 98.1464L21.309 99.8205L22.9547 101.239L24.8558 102.176L26.7569 102.885L29.1403 103.112L31.2968 102.885L33.4248 102.176L35.5813 101.239L37 99.8205L38.4471 98.1464L39.3834 95.99L39.8658 93.6065L40.3482 91.4501L39.8658 88.8397L39.3834 86.6832L38.4471 84.7821L37 82.8811L35.5813 81.6893L33.4248 80.2706L31.2968 79.7883L29.1403 79.3059L26.7569 79.7883L24.8558 80.2706L22.9547 81.6893L21.309 82.8811L20.1173 84.7821L18.9256 86.6832L18.2163 88.8397L17.9893 91.4501ZM27.2676 101.693L23.9478 100.246L21.5644 98.0897L19.6633 94.9969L19.408 93.3228L19.181 91.4217L19.408 89.2653L20.1173 87.3642L20.8267 85.4631L22.0184 83.789L23.6925 82.5973L25.3382 81.888L27.2393 81.1786L29.1403 80.9232L31.2968 81.1786L33.1978 81.888L34.6166 82.5973L36.0636 83.789L37.2554 85.4631L38.1917 87.3642L38.6741 89.2653L38.7592 91.4501L38.6741 93.3228L38.4471 94.9969L36.773 98.0897L34.3896 100.246L31.0698 101.693H27.2676ZM31.2968 90.2584H26.5299V102.176H31.2968V90.2584Z" fill="white"/>
<path fill-rule="evenodd" clip-rule="evenodd" d="M30.1053 102.771H29.1406V103.481H30.1053V102.771Z" fill="#64CE5B"/>
<path d="M31.5527 101.353H31.0703V102.062H31.5527V101.353Z" fill="#64CE5B"/>
<path fill-rule="evenodd" clip-rule="evenodd" d="M26.1895 90.2585L26.5299 90.6273H31.2968V89.918H26.5299L26.1895 90.2585L26.5299 89.918H26.1895V90.2585Z" fill="#64CE5B"/>
<path fill-rule="evenodd" clip-rule="evenodd" d="M26.5299 101.949L26.8988 101.608V89.918H26.1895V101.608L26.5299 101.949L26.1895 101.608V101.949H26.5299Z" fill="#64CE5B"/>
<path d="M31.6664 89.918H30.957V101.835H31.6664V89.918Z" fill="#64CE5B"/>
<path d="M30.1051 91.2231H27.7217V107.425H30.1051V91.2231Z" fill="#64CE5B"/>
<path d="M28.9703 102.034C34.2356 102.034 38.504 97.2572 38.504 91.365C38.504 85.4728 34.2356 80.6963 28.9703 80.6963C23.7049 80.6963 19.4365 85.4728 19.4365 91.365C19.4365 97.2572 23.7049 102.034 28.9703 102.034Z" stroke="#64CE5B" stroke-width="2.794"/>
<path d="M27.7506 101.211H26.8994V102.715H27.7506V101.211Z" fill="white"/>
<path d="M30.9283 101.182H30.1055V102.573H30.9283V101.182Z" fill="white"/>
<path d="M54.4793 82.0299H48.918V87.875H54.4793V82.0299Z" fill="white"/>
<path d="M54.4225 86.2292H53.0605V91.6204H54.4225V86.2292Z" fill="white"/>
<path d="M41.483 82.0299H37.0566V83.5621H41.483V82.0299Z" fill="white"/>
<path d="M39.1851 83.3918H37.8799V84.4417H39.1851V83.3918Z" fill="white"/>
<path d="M28.9985 103.452C35.0944 103.452 40.0361 98.0407 40.0361 91.365C40.0361 84.6893 35.0944 79.2776 28.9985 79.2776C22.9026 79.2776 17.9609 84.6893 17.9609 91.365C17.9609 98.0407 22.9026 103.452 28.9985 103.452Z" stroke="#64CE5B" stroke-width="2.794"/>
<path d="M44.0085 80.3842H37.9932V81.3205H44.0085V80.3842Z" fill="white"/>
<path d="M52.6628 80.3842H46.6475V81.3205H52.6628V80.3842Z" fill="white"/>
<path d="M55.8127 85.0942H55.1885V91.1096H55.8127V85.0942Z" fill="white"/>
<path d="M56.3232 80.214H55.8408V87.3643H56.3232V80.214Z" fill="#64CE5B"/>
<path d="M44.4628 79.618L41.9658 79.6464L45.0586 78.5398H47.5272L44.4628 79.618Z" fill="white"/>
<path fill-rule="evenodd" clip-rule="evenodd" d="M54.4219 91.4501H55.2164V81.6893H54.4219L55.2164 91.4501H54.4219Z" fill="#64CE5B"/>
<path fill-rule="evenodd" clip-rule="evenodd" d="M55.2166 81.6894L54.8477 81.3206H47.1016V82.0299H54.8477L55.2166 81.6894V81.3206H54.8477L55.2166 81.6894Z" fill="#64CE5B"/>
<path d="M92.6993 78.2277C92.6993 80.5828 90.9401 79.6181 88.8971 79.6181C86.8542 79.6181 85.3504 80.6112 85.3504 78.2277C85.3504 75.8727 86.9961 73.9432 89.0106 73.9432C91.0536 73.9716 92.6993 75.8727 92.6993 78.2277ZM94.118 77.6886C94.118 80.5544 91.6778 79.3627 88.8688 79.3627C86.0597 79.3627 83.9316 80.5544 83.9316 77.6886C83.9316 74.8228 86.2016 72.4678 89.039 72.4678C91.8197 72.4678 94.118 74.8228 94.118 77.6886Z" stroke="#64CE5B" stroke-width="2.794"/>
<path d="M93.3513 77.49H84.7539V78.0007H93.3513V77.49Z" fill="white"/>
<path fill-rule="evenodd" clip-rule="evenodd" d="M90.8828 61.4869L89.3506 62.0261L90.8828 62.1679L92.415 62.0261L90.8828 61.4869Z" fill="#64CE5B"/>
<path fill-rule="evenodd" clip-rule="evenodd" d="M90.9961 63.1893L89.4639 63.7284L90.9961 63.8703L92.5283 63.7284L90.9961 63.1893Z" fill="#64CE5B"/>
<path fill-rule="evenodd" clip-rule="evenodd" d="M134.04 81.888H133.303V81.3206H133.785L134.04 81.888Z" fill="#64CE5B"/>
<path d="M117.243 85.6617H115.342V97.5505H117.243V85.6617Z" fill="#64CE5B"/>
<path d="M110.603 90.1449H108.759V90.7407H110.603V90.1449Z" fill="white"/>
<path d="M110.66 92.4148H108.589V93.2376H110.66V92.4148Z" fill="white"/>
<path fill-rule="evenodd" clip-rule="evenodd" d="M7.0939 92.1027L5.9873 91.7055L7.29252 91.2231L7.0939 92.1027Z" fill="#64CE5B"/>
</svg>
